{
DisplayStrings = (
m
);
copyright = "Generated by Fontographer 4.1";
customParameters = (
{
name = vendorID;
value = MACR;
},
{
name = glyphOrder;
value = (
    ".notdef",
    uni0000,
    uni000D,
    H,
    I,
    J,
    K,
    L,
    M,
    N,
    O,
    P,
    Q,
    R,
    S,
    k,
    l,
    m,
    n,
    o,
    p,
    q,
    r,
    s,
    t,
    u,
    v,
    quotedblleft,
    quotedblright
);
}
);
date = "2010-07-14 15:06:28 +0000";
familyName = "Chess Cases";
fontMaster = (
{
ascender = 1000;
capHeight = 700;
customParameters = (
{
name = typoAscender;
value = 1000;
},
{
name = typoDescender;
value = 0;
},
{
name = typoLineGap;
value = 0;
},
{
name = underlinePosition;
value = -133;
}
);
descender = "-250";
id = "2A91B3D2-AC67-40A1-AF7C-F75DCB303A46";
weightValue = 400;
widthValue = 5;
xHeight = 500;
}
);
glyphs = (
{
glyphname = .notdef;
layers = (
{
layerId = "2A91B3D2-AC67-40A1-AF7C-F75DCB303A46";
name = Regular;
paths = (
{
closed = 1;
nodes = (
"63 0 LINE",
"63 1000 LINE",
"438 1000 LINE",
"438 0 LINE"
);
},
{
closed = 1;
nodes = (
"125 63 LINE",
"375 63 LINE",
"375 938 LINE",
"125 938 LINE"
);
}
);
width = 500;
}
);
},
{
glyphname = H;
layers = (
{
layerId = "2A91B3D2-AC67-40A1-AF7C-F75DCB303A46";
name = Regular;
paths = (
{
closed = 1;
nodes = (
"337 93 OFFCURVE",
"253 121 OFFCURVE",
"250 177 CURVE SMOOTH",
"245 300 OFFCURVE",
"225 339 OFFCURVE",
"173 408 CURVE SMOOTH",
"137 456 OFFCURVE",
"124 479 OFFCURVE",
"124 524 CURVE SMOOTH",
"124 587 OFFCURVE",
"165 643 OFFCURVE",
"224 664 CURVE SMOOTH",
"245 671 OFFCURVE",
"263 675 OFFCURVE",
"280 674 CURVE",
"323 673 OFFCURVE",
"364 657 OFFCURVE",
"403 626 CURVE",
"404 625 LINE",
"404 648 OFFCURVE",
"405 667 OFFCURVE",
"407 682 CURVE",
"407 688 OFFCURVE",
"410 696 OFFCURVE",
"415 705 CURVE",
"422 722 OFFCURVE",
"441 741 OFFCURVE",
"473 763 CURVE",
"473 793 LINE",
"422 823 LINE",
"422 868 LINE",
"468 868 LINE",
"484 915 LINE",
"522 915 LINE",
"538 868 LINE",
"584 868 LINE",
"584 823 LINE",
"533 793 LINE",
"533 763 LINE",
"563 743 OFFCURVE",
"583 724 OFFCURVE",
"592 705 CURVE",
"601 684 OFFCURVE",
"600 678 OFFCURVE",
"601 654 CURVE",
"602 641 OFFCURVE",
"602 632 OFFCURVE",
"602 625 CURVE",
"603 626 LINE",
"679 689 OFFCURVE",
"757 683 OFFCURVE",
"811 650 CURVE SMOOTH",
"865 617 OFFCURVE",
"882 567 OFFCURVE",
"882 524 CURVE SMOOTH",
"882 489 OFFCURVE",
"866 450 OFFCURVE",
"834 408 CURVE SMOOTH",
"806 371 OFFCURVE",
"792 352 OFFCURVE",
"781 321 CURVE",
"766 285 OFFCURVE",
"758 237 OFFCURVE",
"756 177 CURVE SMOOTH",
"755 121 OFFCURVE",
"670 93 OFFCURVE",
"503 93 CURVE SMOOTH"
);
},
{
closed = 1;
nodes = (
"504 515 OFFCURVE",
"506 520 OFFCURVE",
"511 527 CURVE SMOOTH",
"534 559 OFFCURVE",
"546 583 OFFCURVE",
"553 607 CURVE",
"555 625 OFFCURVE",
"556 637 OFFCURVE",
"556 643 CURVE SMOOTH",
"556 692 OFFCURVE",
"539 717 OFFCURVE",
"504 717 CURVE SMOOTH",
"468 717 OFFCURVE",
"450 692 OFFCURVE",
"450 643 CURVE SMOOTH",
"450 634 OFFCURVE",
"451 622 OFFCURVE",
"453 607 CURVE",
"460 584 OFFCURVE",
"474 557 OFFCURVE",
"495 527 CURVE SMOOTH",
"500 520 OFFCURVE",
"503 515 OFFCURVE",
"503 514 CURVE"
);
},
{
closed = 1;
nodes = (
"837 591 OFFCURVE",
"781 629 OFFCURVE",
"726 629 CURVE SMOOTH",
"653 629 OFFCURVE",
"538 546 OFFCURVE",
"526 401 CURVE",
"526 395 OFFCURVE",
"541 389 OFFCURVE",
"572 382 CURVE SMOOTH",
"598 377 OFFCURVE",
"642 373 OFFCURVE",
"703 372 CURVE",
"714 371 OFFCURVE",
"723 371 OFFCURVE",
"732 371 CURVE SMOOTH",
"736 371 LINE",
"754 371 LINE",
"757 376 OFFCURVE",
"762 383 OFFCURVE",
"769 391 CURVE SMOOTH",
"775 398 OFFCURVE",
"783 408 OFFCURVE",
"792 419 CURVE",
"810 445 OFFCURVE",
"823 467 OFFCURVE",
"830 484 CURVE SMOOTH",
"835 497 OFFCURVE",
"837 507 OFFCURVE",
"837 516 CURVE SMOOTH"
);
},
{
closed = 1;
nodes = (
"470 333 OFFCURVE",
"402 331 OFFCURVE",
"311 324 CURVE SMOOTH",
"274 321 LINE",
"283 288 OFFCURVE",
"288 253 OFFCURVE",
"291 216 CURVE",
"349 235 OFFCURVE",
"420 244 OFFCURVE",
"503 244 CURVE SMOOTH",
"587 244 OFFCURVE",
"658 235 OFFCURVE",
"716 216 CURVE",
"718 257 OFFCURVE",
"723 292 OFFCURVE",
"732 321 CURVE",
"696 324 LINE",
"673 325 OFFCURVE",
"638 328 OFFCURVE",
"593 331 CURVE",
"545 336 OFFCURVE",
"527 337 OFFCURVE",
"503 348 CURVE"
);
},
{
closed = 1;
nodes = (
"169 499 OFFCURVE",
"178 477 OFFCURVE",
"195 449 CURVE",
"204 436 OFFCURVE",
"211 426 OFFCURVE",
"216 419 CURVE SMOOTH",
"226 405 LINE",
"235 396 OFFCURVE",
"243 384 OFFCURVE",
"252 371 CURVE",
"274 371 LINE SMOOTH",
"343 371 OFFCURVE",
"481 381 OFFCURVE",
"481 401 CURVE",
"468 546 OFFCURVE",
"355 629 OFFCURVE",
"280 629 CURVE SMOOTH",
"269 629 OFFCURVE",
"256 627 OFFCURVE",
"243 622 CURVE",
"186 607 OFFCURVE",
"169 553 OFFCURVE",
"169 516 CURVE SMOOTH"
);
},
{
closed = 1;
nodes = (
"544 138 OFFCURVE",
"585 141 OFFCURVE",
"626 146 CURVE SMOOTH",
"660 150 OFFCURVE",
"677 155 OFFCURVE",
"677 162 CURVE SMOOTH",
"677 173 OFFCURVE",
"662 180 OFFCURVE",
"631 185 CURVE SMOOTH",
"586 191 OFFCURVE",
"544 194 OFFCURVE",
"504 194 CURVE SMOOTH",
"463 194 OFFCURVE",
"421 191 OFFCURVE",
"376 185 CURVE SMOOTH",
"345 180 OFFCURVE",
"329 173 OFFCURVE",
"329 162 CURVE SMOOTH",
"329 143 OFFCURVE",
"455 138 OFFCURVE",
"503 138 CURVE SMOOTH"
);
}
);
width = 1000;
}
);
unicode = 0048;
},
{
glyphname = I;
layers = (
{
layerId = "2A91B3D2-AC67-40A1-AF7C-F75DCB303A46";
name = Regular;
paths = (
{
closed = 1;
nodes = (
"502 376 LINE",
"516 376 LINE SMOOTH",
"517 376 OFFCURVE",
"520 376 OFFCURVE",
"523 377 CURVE",
"526 377 OFFCURVE",
"528 377 OFFCURVE",
"530 377 CURVE SMOOTH",
"537 377 OFFCURVE",
"573 376 OFFCURVE",
"637 371 CURVE SMOOTH",
"663 369 OFFCURVE",
"684 368 OFFCURVE",
"699 368 CURVE SMOOTH",
"714 368 OFFCURVE",
"722 370 OFFCURVE",
"722 374 CURVE SMOOTH",
"722 375 OFFCURVE",
"722 376 OFFCURVE",
"721 377 CURVE",
"721 378 LINE",
"721 379 LINE SMOOTH",
"721 415 OFFCURVE",
"574 430 OFFCURVE",
"503 430 CURVE SMOOTH",
"432 430 OFFCURVE",
"286 416 OFFCURVE",
"286 379 CURVE SMOOTH",
"286 377 LINE",
"285 376 OFFCURVE",
"284 375 OFFCURVE",
"284 374 CURVE SMOOTH",
"284 370 OFFCURVE",
"292 368 OFFCURVE",
"307 368 CURVE SMOOTH",
"311 368 OFFCURVE",
"332 369 OFFCURVE",
"370 372 CURVE SMOOTH",
"415 375 OFFCURVE",
"450 377 OFFCURVE",
"475 377 CURVE SMOOTH",
"476 377 OFFCURVE",
"479 377 OFFCURVE",
"482 377 CURVE",
"485 376 OFFCURVE",
"488 376 OFFCURVE",
"489 376 CURVE SMOOTH"
);
},
{
closed = 1;
nodes = (
"637 329 OFFCURVE",
"570 333 OFFCURVE",
"503 333 CURVE SMOOTH",
"441 333 OFFCURVE",
"388 330 OFFCURVE",
"345 325 CURVE",
"329 324 OFFCURVE",
"314 322 OFFCURVE",
"301 320 CURVE",
"311 312 OFFCURVE",
"316 296 OFFCURVE",
"316 271 CURVE SMOOTH",
"316 256 OFFCURVE",
"313 247 OFFCURVE",
"308 243 CURVE",
"363 252 OFFCURVE",
"428 257 OFFCURVE",
"503 257 CURVE SMOOTH",
"578 257 OFFCURVE",
"643 252 OFFCURVE",
"698 243 CURVE",
"693 247 OFFCURVE",
"691 256 OFFCURVE",
"691 271 CURVE SMOOTH",
"691 296 OFFCURVE",
"696 312 OFFCURVE",
"706 320 CURVE"
);
},
{
closed = 1;
nodes = (
"455 213 OFFCURVE",
"408 211 OFFCURVE",
"361 206 CURVE SMOOTH",
"320 203 OFFCURVE",
"299 193 OFFCURVE",
"299 178 CURVE SMOOTH",
"299 157 OFFCURVE",
"367 147 OFFCURVE",
"503 147 CURVE SMOOTH",
"639 147 OFFCURVE",
"707 157 OFFCURVE",
"707 178 CURVE SMOOTH",
"707 185 OFFCURVE",
"702 191 OFFCURVE",
"691 196 CURVE",
"648 212 OFFCURVE",
"554 213 OFFCURVE",
"503 213 CURVE SMOOTH"
);
},
{
closed = 1;
nodes = (
"482 867 OFFCURVE",
"472 857 OFFCURVE",
"472 836 CURVE SMOOTH",
"472 815 OFFCURVE",
"482 804 OFFCURVE",
"503 804 CURVE SMOOTH",
"523 804 OFFCURVE",
"533 815 OFFCURVE",
"533 836 CURVE SMOOTH",
"533 857 OFFCURVE",
"523 867 OFFCURVE",
"503 867 CURVE SMOOTH"
);
},
{
closed = 1;
nodes = (
"542 903 OFFCURVE",
"572 872 OFFCURVE",
"572 833 CURVE SMOOTH",
"572 827 OFFCURVE",
"569 816 OFFCURVE",
"562 801 CURVE",
"547 764 OFFCURVE",
"545 758 OFFCURVE",
"545 713 CURVE SMOOTH",
"545 680 OFFCURVE",
"552 615 OFFCURVE",
"572 532 CURVE",
"617 627 OFFCURVE",
"639 698 OFFCURVE",
"639 746 CURVE SMOOTH",
"639 757 OFFCURVE",
"637 770 OFFCURVE",
"634 784 CURVE",
"633 791 OFFCURVE",
"632 797 OFFCURVE",
"632 800 CURVE SMOOTH",
"632 839 OFFCURVE",
"664 870 OFFCURVE",
"701 870 CURVE SMOOTH",
"740 870 OFFCURVE",
"772 839 OFFCURVE",
"772 800 CURVE SMOOTH",
"772 778 OFFCURVE",
"765 761 OFFCURVE",
"750 749 CURVE",
"714 726 OFFCURVE",
"715 679 OFFCURVE",
"715 639 CURVE SMOOTH",
"715 613 OFFCURVE",
"717 578 OFFCURVE",
"721 534 CURVE",
"775 589 OFFCURVE",
"802 634 OFFCURVE",
"802 670 CURVE SMOOTH",
"802 675 OFFCURVE",
"801 685 OFFCURVE",
"798 698 CURVE",
"797 708 OFFCURVE",
"796 715 OFFCURVE",
"796 719 CURVE SMOOTH",
"796 756 OFFCURVE",
"828 789 OFFCURVE",
"865 789 CURVE SMOOTH",
"904 789 OFFCURVE",
"936 756 OFFCURVE",
"936 719 CURVE SMOOTH",
"936 685 OFFCURVE",
"917 659 OFFCURVE",
"878 642 CURVE",
"875 594 OFFCURVE",
"869 557 OFFCURVE",
"841 449 CURVE SMOOTH",
"833 416 LINE",
"833 404 OFFCURVE",
"820 384 OFFCURVE",
"793 357 CURVE SMOOTH",
"758 321 OFFCURVE",
"740 293 OFFCURVE",
"740 273 CURVE SMOOTH",
"740 257 OFFCURVE",
"769 202 OFFCURVE",
"770 199 CURVE SMOOTH",
"773 190 OFFCURVE",
"775 178 OFFCURVE",
"775 165 CURVE SMOOTH",
"775 163 OFFCURVE",
"775 160 OFFCURVE",
"774 157 CURVE",
"773 153 OFFCURVE",
"773 150 OFFCURVE",
"773 148 CURVE SMOOTH",
"773 146 LINE",
"774 145 LINE",
"774 104 OFFCURVE",
"601 97 OFFCURVE",
"557 96 CURVE SMOOTH",
"532 95 OFFCURVE",
"514 95 OFFCURVE",
"502 95 CURVE SMOOTH",
"500 95 OFFCURVE",
"494 95 OFFCURVE",
"483 96 CURVE SMOOTH",
"470 97 OFFCURVE",
"459 97 OFFCURVE",
"448 97 CURVE SMOOTH",
"371 99 OFFCURVE",
"312 106 OFFCURVE",
"269 117 CURVE SMOOTH",
"244 124 OFFCURVE",
"231 134 OFFCURVE",
"231 145 CURVE",
"232 146 LINE",
"232 148 LINE SMOOTH",
"232 149 OFFCURVE",
"232 150 OFFCURVE",
"231 152 CURVE",
"231 154 OFFCURVE",
"231 156 OFFCURVE",
"231 157 CURVE SMOOTH",
"231 165 LINE SMOOTH",
"231 184 OFFCURVE",
"237 206 OFFCURVE",
"250 232 CURVE SMOOTH",
"259 251 OFFCURVE",
"264 265 OFFCURVE",
"264 273 CURVE SMOOTH",
"264 287 OFFCURVE",
"257 303 OFFCURVE",
"243 320 CURVE",
"229 335 OFFCURVE",
"209 359 OFFCURVE",
"182 390 CURVE",
"175 399 OFFCURVE",
"172 408 OFFCURVE",
"172 416 CURVE",
"163 453 OFFCURVE",
"153 491 OFFCURVE",
"144 528 CURVE SMOOTH",
"135 571 OFFCURVE",
"129 609 OFFCURVE",
"127 642 CURVE",
"88 659 OFFCURVE",
"69 685 OFFCURVE",
"69 719 CURVE SMOOTH",
"69 756 OFFCURVE",
"102 789 OFFCURVE",
"139 789 CURVE SMOOTH",
"178 789 OFFCURVE",
"209 756 OFFCURVE",
"209 719 CURVE SMOOTH",
"209 716 OFFCURVE",
"208 709 OFFCURVE",
"207 698 CURVE",
"204 685 OFFCURVE",
"203 675 OFFCURVE",
"203 670 CURVE SMOOTH",
"203 634 OFFCURVE",
"230 589 OFFCURVE",
"283 534 CURVE",
"288 578 OFFCURVE",
"290 613 OFFCURVE",
"290 639 CURVE SMOOTH",
"290 678 OFFCURVE",
"286 706 OFFCURVE",
"279 721 CURVE",
"272 734 OFFCURVE",
"267 739 OFFCURVE",
"255 750 CURVE",
"246 755 OFFCURVE",
"241 762 OFFCURVE",
"238 769 CURVE",
"234 774 OFFCURVE",
"232 785 OFFCURVE",
"232 800 CURVE SMOOTH",
"232 839 OFFCURVE",
"264 870 OFFCURVE",
"303 870 CURVE SMOOTH",
"342 870 OFFCURVE",
"373 839 OFFCURVE",
"373 800 CURVE SMOOTH",
"373 797 OFFCURVE",
"372 792 OFFCURVE",
"371 784 CURVE",
"368 770 OFFCURVE",
"366 757 OFFCURVE",
"366 746 CURVE SMOOTH",
"366 699 OFFCURVE",
"388 627 OFFCURVE",
"433 532 CURVE",
"451 608 OFFCURVE",
"460 668 OFFCURVE",
"460 713 CURVE SMOOTH",
"460 746 OFFCURVE",
"454 777 OFFCURVE",
"441 808 CURVE SMOOTH",
"436 819 OFFCURVE",
"433 828 OFFCURVE",
"433 833 CURVE SMOOTH",
"433 872 OFFCURVE",
"466 903 OFFCURVE",
"503 903 CURVE SMOOTH"
);
},
{
closed = 1;
nodes = (
"849 749 OFFCURVE",
"835 735 OFFCURVE",
"835 719 CURVE SMOOTH",
"835 702 OFFCURVE",
"849 687 OFFCURVE",
"865 687 CURVE SMOOTH",
"886 687 OFFCURVE",
"896 698 OFFCURVE",
"896 719 CURVE SMOOTH",
"896 739 OFFCURVE",
"886 749 OFFCURVE",
"865 749 CURVE SMOOTH"
);
},
{
closed = 1;
nodes = (
"685 829 OFFCURVE",
"671 814 OFFCURVE",
"671 798 CURVE SMOOTH",
"671 781 OFFCURVE",
"685 766 OFFCURVE",
"701 766 CURVE SMOOTH",
"722 766 OFFCURVE",
"733 777 OFFCURVE",
"733 798 CURVE SMOOTH",
"733 819 OFFCURVE",
"722 829 OFFCURVE",
"701 829 CURVE SMOOTH"
);
},
{
closed = 1;
nodes = (
"282 829 OFFCURVE",
"272 819 OFFCURVE",
"272 798 CURVE SMOOTH",
"272 777 OFFCURVE",
"282 766 OFFCURVE",
"303 766 CURVE SMOOTH",
"323 766 OFFCURVE",
"333 777 OFFCURVE",
"333 798 CURVE SMOOTH",
"333 819 OFFCURVE",
"323 829 OFFCURVE",
"303 829 CURVE SMOOTH"
);
},
{
closed = 1;
nodes = (
"118 749 OFFCURVE",
"108 739 OFFCURVE",
"108 719 CURVE SMOOTH",
"108 698 OFFCURVE",
"118 687 OFFCURVE",
"139 687 CURVE SMOOTH",
"159 687 OFFCURVE",
"169 698 OFFCURVE",
"169 719 CURVE SMOOTH",
"169 735 OFFCURVE",
"155 749 OFFCURVE",
"139 749 CURVE SMOOTH"
);
},
{
closed = 1;
nodes = (
"500 653 OFFCURVE",
"497 638 OFFCURVE",
"494 624 CURVE SMOOTH",
"486 588 LINE SMOOTH",
"478 555 OFFCURVE",
"469 529 OFFCURVE",
"458 510 CURVE",
"456 506 OFFCURVE",
"453 501 OFFCURVE",
"448 495 CURVE SMOOTH",
"443 489 OFFCURVE",
"440 484 OFFCURVE",
"439 479 CURVE",
"438 481 OFFCURVE",
"434 486 OFFCURVE",
"427 494 CURVE SMOOTH",
"416 506 OFFCURVE",
"399 525 OFFCURVE",
"388 544 CURVE SMOOTH",
"368 580 OFFCURVE",
"349 625 OFFCURVE",
"331 678 CURVE",
"332 669 OFFCURVE",
"333 657 OFFCURVE",
"333 642 CURVE SMOOTH",
"333 627 OFFCURVE",
"331 596 OFFCURVE",
"326 549 CURVE",
"325 542 OFFCURVE",
"324 531 OFFCURVE",
"321 516 CURVE",
"312 460 LINE",
"267 486 OFFCURVE",
"224 529 OFFCURVE",
"181 588 CURVE",
"189 546 OFFCURVE",
"196 512 OFFCURVE",
"203 485 CURVE SMOOTH",
"215 438 OFFCURVE",
"217 423 OFFCURVE",
"232 418 CURVE",
"301 457 OFFCURVE",
"392 477 OFFCURVE",
"503 477 CURVE SMOOTH",
"615 477 OFFCURVE",
"705 457 OFFCURVE",
"774 418 CURVE",
"787 422 OFFCURVE",
"800 461 OFFCURVE",
"815 536 CURVE",
"816 543 OFFCURVE",
"818 553 OFFCURVE",
"821 566 CURVE",
"825 588 LINE",
"782 529 OFFCURVE",
"739 486 OFFCURVE",
"695 460 CURVE",
"691 479 LINE",
"679 548 OFFCURVE",
"673 599 OFFCURVE",
"673 631 CURVE SMOOTH",
"673 648 OFFCURVE",
"674 663 OFFCURVE",
"676 678 CURVE",
"658 625 OFFCURVE",
"639 580 OFFCURVE",
"618 544 CURVE SMOOTH",
"610 530 OFFCURVE",
"597 513 OFFCURVE",
"579 494 CURVE",
"572 486 OFFCURVE",
"568 481 OFFCURVE",
"567 479 CURVE",
"563 486 OFFCURVE",
"557 497 OFFCURVE",
"548 510 CURVE",
"545 516 OFFCURVE",
"541 525 OFFCURVE",
"536 538 CURVE SMOOTH",
"531 550 OFFCURVE",
"523 579 OFFCURVE",
"512 625 CURVE SMOOTH",
"509 639 OFFCURVE",
"506 654 OFFCURVE",
"503 669 CURVE"
);
}
);
width = 1000;
}
);
unicode = 0049;
},
{
glyphname = J;
layers = (
{
layerId = "2A91B3D2-AC67-40A1-AF7C-F75DCB303A46";
name = Regular;
paths = (
{
closed = 1;
nodes = (
"357 585 LINE",
"357 363 LINE",
"642 363 LINE",
"642 585 LINE"
);
},
{
closed = 1;
nodes = (
"210 100 LINE",
"186 124 LINE",
"186 210 LINE",
"314 339 LINE",
"314 589 LINE",
"204 685 LINE",
"204 798 LINE",
"240 833 LINE",
"352 833 LINE",
"374 812 LINE",
"374 780 LINE",
"410 780 LINE",
"410 812 LINE",
"431 833 LINE",
"569 833 LINE",
"590 812 LINE",
"590 780 LINE",
"625 780 LINE",
"625 812 LINE",
"647 833 LINE",
"760 833 LINE",
"796 798 LINE",
"796 685 LINE",
"686 589 LINE",
"686 339 LINE",
"814 210 LINE",
"814 124 LINE",
"790 100 LINE"
);
},
{
closed = 1;
nodes = (
"230 198 LINE",
"230 150 LINE",
"770 150 LINE",
"770 198 LINE"
);
},
{
closed = 1;
nodes = (
"352 322 LINE",
"270 242 LINE",
"730 242 LINE",
"648 322 LINE"
);
},
{
closed = 1;
nodes = (
"452 781 LINE",
"452 749 LINE",
"434 731 LINE",
"353 731 LINE",
"334 749 LINE",
"334 783 LINE",
"264 783 LINE",
"248 766 LINE",
"248 696 LINE",
"333 627 LINE",
"667 627 LINE",
"752 696 LINE",
"752 766 LINE",
"736 783 LINE",
"666 783 LINE",
"666 749 LINE",
"647 731 LINE",
"566 731 LINE",
"548 749 LINE",
"548 781 LINE"
);
}
);
width = 1000;
}
);
unicode = 004A;
},
{
glyphname = K;
layers = (
{
layerId = "2A91B3D2-AC67-40A1-AF7C-F75DCB303A46";
name = Regular;
paths = (
{
closed = 1;
nodes = (
"458 431 OFFCURVE",
"421 433 OFFCURVE",
"390 436 CURVE SMOOTH",
"380 437 OFFCURVE",
"371 438 OFFCURVE",
"364 439 CURVE",
"369 429 OFFCURVE",
"372 419 OFFCURVE",
"372 408 CURVE SMOOTH",
"372 397 OFFCURVE",
"370 386 OFFCURVE",
"365 377 CURVE",
"379 382 OFFCURVE",
"409 385 OFFCURVE",
"454 388 CURVE SMOOTH",
"468 389 OFFCURVE",
"483 389 OFFCURVE",
"500 389 CURVE SMOOTH",
"566 389 OFFCURVE",
"611 385 OFFCURVE",
"635 377 CURVE",
"630 386 OFFCURVE",
"627 397 OFFCURVE",
"627 408 CURVE SMOOTH",
"627 418 OFFCURVE",
"630 428 OFFCURVE",
"635 439 CURVE",
"596 434 OFFCURVE",
"551 431 OFFCURVE",
"500 431 CURVE SMOOTH"
);
},
{
closed = 1;
nodes = (
"479 884 OFFCURVE",
"461 866 OFFCURVE",
"461 847 CURVE SMOOTH",
"461 826 OFFCURVE",
"479 810 OFFCURVE",
"500 810 CURVE SMOOTH",
"520 810 OFFCURVE",
"539 826 OFFCURVE",
"539 847 CURVE SMOOTH",
"539 867 OFFCURVE",
"520 884 OFFCURVE",
"500 884 CURVE SMOOTH"
);
},
{
closed = 1;
nodes = (
"500 352 LINE SMOOTH",
"473 352 OFFCURVE",
"432 349 OFFCURVE",
"377 344 CURVE",
"361 341 OFFCURVE",
"353 333 OFFCURVE",
"353 320 CURVE SMOOTH",
"353 299 OFFCURVE",
"376 302 OFFCURVE",
"500 302 CURVE SMOOTH",
"597 302 OFFCURVE",
"646 308 OFFCURVE",
"646 320 CURVE SMOOTH",
"646 351 OFFCURVE",
"610 350 OFFCURVE",
"537 351 CURVE SMOOTH",
"530 351 OFFCURVE",
"521 351 OFFCURVE",
"510 352 CURVE"
);
},
{
closed = 1;
nodes = (
"592 467 OFFCURVE",
"649 476 OFFCURVE",
"670 493 CURVE",
"685 504 OFFCURVE",
"695 533 OFFCURVE",
"701 580 CURVE",
"694 663 OFFCURVE",
"565 753 OFFCURVE",
"498 761 CURVE",
"434 753 OFFCURVE",
"306 663 OFFCURVE",
"299 580 CURVE",
"306 531 OFFCURVE",
"310 504 OFFCURVE",
"337 488 CURVE SMOOTH",
"360 474 OFFCURVE",
"414 467 OFFCURVE",
"499 467 CURVE SMOOTH"
);
},
{
closed = 1;
nodes = (
"477 528 LINE",
"477 584 LINE",
"435 584 LINE",
"435 632 LINE",
"477 632 LINE",
"477 686 LINE",
"523 686 LINE",
"523 632 LINE",
"565 632 LINE",
"565 584 LINE",
"523 584 LINE",
"523 528 LINE"
);
},
{
closed = 1;
nodes = (
"493 274 OFFCURVE",
"482 268 OFFCURVE",
"465 255 CURVE SMOOTH",
"442 238 OFFCURVE",
"419 219 OFFCURVE",
"398 216 CURVE",
"373 207 OFFCURVE",
"343 201 OFFCURVE",
"306 198 CURVE",
"295 198 OFFCURVE",
"222 195 OFFCURVE",
"206 192 CURVE SMOOTH",
"179 186 OFFCURVE",
"166 175 OFFCURVE",
"166 158 CURVE",
"169 141 OFFCURVE",
"178 133 OFFCURVE",
"192 133 CURVE SMOOTH",
"195 133 OFFCURVE",
"205 134 OFFCURVE",
"220 137 CURVE SMOOTH",
"239 141 OFFCURVE",
"252 143 OFFCURVE",
"259 143 CURVE SMOOTH",
"339 143 OFFCURVE",
"467 165 OFFCURVE",
"500 228 CURVE",
"520 189 OFFCURVE",
"580 159 OFFCURVE",
"675 148 CURVE SMOOTH",
"708 144 LINE SMOOTH",
"719 143 OFFCURVE",
"730 143 OFFCURVE",
"740 143 CURVE SMOOTH",
"747 143 OFFCURVE",
"761 141 OFFCURVE",
"780 137 CURVE SMOOTH",
"795 134 OFFCURVE",
"804 133 OFFCURVE",
"807 133 CURVE SMOOTH",
"822 133 OFFCURVE",
"831 141 OFFCURVE",
"834 158 CURVE",
"834 191 OFFCURVE",
"797 193 OFFCURVE",
"734 196 CURVE SMOOTH",
"703 197 OFFCURVE",
"645 201 OFFCURVE",
"602 216 CURVE",
"581 220 OFFCURVE",
"568 228 OFFCURVE",
"537 252 CURVE",
"519 267 OFFCURVE",
"506 274 OFFCURVE",
"498 274 CURVE SMOOTH"
);
},
{
closed = 1;
nodes = (
"468 132 OFFCURVE",
"419 112 OFFCURVE",
"352 105 CURVE SMOOTH",
"321 102 OFFCURVE",
"274 96 OFFCURVE",
"212 87 CURVE",
"195 83 OFFCURVE",
"185 75 OFFCURVE",
"183 63 CURVE",
"161 72 OFFCURVE",
"141 93 OFFCURVE",
"122 126 CURVE SMOOTH",
"113 141 OFFCURVE",
"104 154 OFFCURVE",
"96 165 CURVE",
"124 218 OFFCURVE",
"158 244 OFFCURVE",
"199 244 CURVE SMOOTH",
"207 244 OFFCURVE",
"219 243 OFFCURVE",
"236 242 CURVE SMOOTH",
"252 241 OFFCURVE",
"264 240 OFFCURVE",
"272 240 CURVE SMOOTH",
"309 240 OFFCURVE",
"349 248 OFFCURVE",
"392 264 CURVE",
"333 271 OFFCURVE",
"304 288 OFFCURVE",
"304 317 CURVE SMOOTH",
"304 326 OFFCURVE",
"308 342 OFFCURVE",
"317 365 CURVE",
"325 388 OFFCURVE",
"329 404 OFFCURVE",
"329 415 CURVE",
"279 470 OFFCURVE",
"254 521 OFFCURVE",
"254 570 CURVE SMOOTH",
"254 679 OFFCURVE",
"395 779 OFFCURVE",
"440 783 CURVE",
"422 805 OFFCURVE",
"413 829 OFFCURVE",
"413 854 CURVE SMOOTH",
"413 902 OFFCURVE",
"449 930 OFFCURVE",
"500 930 CURVE SMOOTH",
"549 930 OFFCURVE",
"586 901 OFFCURVE",
"586 854 CURVE SMOOTH",
"586 829 OFFCURVE",
"577 805 OFFCURVE",
"560 783 CURVE",
"608 778 OFFCURVE",
"746 679 OFFCURVE",
"746 570 CURVE SMOOTH",
"746 522 OFFCURVE",
"721 470 OFFCURVE",
"671 415 CURVE",
"671 404 OFFCURVE",
"675 388 OFFCURVE",
"684 365 CURVE",
"692 342 OFFCURVE",
"696 326 OFFCURVE",
"696 317 CURVE SMOOTH",
"696 288 OFFCURVE",
"666 271 OFFCURVE",
"607 264 CURVE",
"650 248 OFFCURVE",
"690 240 OFFCURVE",
"727 240 CURVE SMOOTH",
"736 240 OFFCURVE",
"748 241 OFFCURVE",
"764 242 CURVE SMOOTH",
"780 243 OFFCURVE",
"792 244 OFFCURVE",
"801 244 CURVE SMOOTH",
"842 244 OFFCURVE",
"876 218 OFFCURVE",
"904 165 CURVE",
"891 146 OFFCURVE",
"879 126 OFFCURVE",
"867 107 CURVE SMOOTH",
"853 86 OFFCURVE",
"836 72 OFFCURVE",
"817 63 CURVE",
"812 91 OFFCURVE",
"776 92 OFFCURVE",
"707 99 CURVE SMOOTH",
"603 108 OFFCURVE",
"534 130 OFFCURVE",
"500 165 CURVE"
);
}
);
width = 1000;
}
);
unicode = 004B;
},
{
glyphname = L;
layers = (
{
layerId = "2A91B3D2-AC67-40A1-AF7C-F75DCB303A46";
name = Regular;
paths = (
{
closed = 1;
nodes = (
"220 395 OFFCURVE",
"226 387 OFFCURVE",
"226 371 CURVE SMOOTH",
"226 350 OFFCURVE",
"216 340 OFFCURVE",
"195 340 CURVE",
"196 340 OFFCURVE",
"195 340 OFFCURVE",
"191 341 CURVE",
"187 341 LINE",
"184 344 OFFCURVE",
"182 351 OFFCURVE",
"182 360 CURVE SMOOTH",
"182 383 OFFCURVE",
"191 395 OFFCURVE",
"208 395 CURVE SMOOTH"
);
},
{
closed = 1;
nodes = (
"291 548 LINE",
"284 553 OFFCURVE",
"281 560 OFFCURVE",
"281 569 CURVE SMOOTH",
"281 600 OFFCURVE",
"321 632 OFFCURVE",
"353 632 CURVE SMOOTH",
"362 632 OFFCURVE",
"370 630 OFFCURVE",
"378 625 CURVE",
"381 622 OFFCURVE",
"382 618 OFFCURVE",
"382 615 CURVE SMOOTH",
"382 587 OFFCURVE",
"330 547 OFFCURVE",
"298 547 CURVE SMOOTH",
"297 547 LINE",
"296 548 OFFCURVE",
"295 548 OFFCURVE",
"294 548 CURVE SMOOTH",
"292 548 LINE"
);
},
{
closed = 1;
nodes = (
"308 782 LINE",
"311 774 OFFCURVE",
"313 766 OFFCURVE",
"313 759 CURVE SMOOTH",
"313 756 OFFCURVE",
"312 750 OFFCURVE",
"310 739 CURVE",
"311 739 LINE",
"316 740 OFFCURVE",
"326 743 OFFCURVE",
"342 749 CURVE",
"349 750 OFFCURVE",
"357 754 OFFCURVE",
"364 759 CURVE",
"339 774 OFFCURVE",
"336 774 OFFCURVE",
"309 782 CURVE"
);
},
{
closed = 1;
nodes = (
"167 326 OFFCURVE",
"196 304 OFFCURVE",
"223 304 CURVE SMOOTH",
"226 304 LINE SMOOTH",
"229 304 OFFCURVE",
"238 309 OFFCURVE",
"252 318 CURVE",
"259 322 OFFCURVE",
"263 324 OFFCURVE",
"266 324 CURVE",
"267 323 OFFCURVE",
"268 323 OFFCURVE",
"270 323 CURVE",
"271 322 LINE",
"275 322 OFFCURVE",
"277 320 OFFCURVE",
"277 316 CURVE SMOOTH",
"277 315 OFFCURVE",
"276 311 OFFCURVE",
"274 305 CURVE",
"271 299 OFFCURVE",
"270 295 OFFCURVE",
"270 292 CURVE SMOOTH",
"270 285 OFFCURVE",
"276 281 OFFCURVE",
"287 281 CURVE",
"289 282 OFFCURVE",
"299 296 OFFCURVE",
"318 325 CURVE SMOOTH",
"367 398 OFFCURVE",
"423 431 OFFCURVE",
"475 454 CURVE",
"476 461 OFFCURVE",
"479 474 OFFCURVE",
"484 491 CURVE SMOOTH",
"494 524 OFFCURVE",
"507 551 OFFCURVE",
"524 572 CURVE SMOOTH",
"531 581 OFFCURVE",
"538 586 OFFCURVE",
"544 586 CURVE SMOOTH",
"548 586 OFFCURVE",
"556 583 OFFCURVE",
"556 570 CURVE SMOOTH",
"556 563 OFFCURVE",
"552 549 OFFCURVE",
"544 528 CURVE SMOOTH",
"531 495 OFFCURVE",
"525 471 OFFCURVE",
"525 456 CURVE SMOOTH",
"525 451 OFFCURVE",
"526 446 OFFCURVE",
"527 440 CURVE",
"527 381 OFFCURVE",
"502 319 OFFCURVE",
"452 254 CURVE SMOOTH",
"419 211 OFFCURVE",
"401 175 OFFCURVE",
"397 146 CURVE",
"809 146 LINE",
"812 175 OFFCURVE",
"814 204 OFFCURVE",
"814 231 CURVE SMOOTH",
"814 365 OFFCURVE",
"781 478 OFFCURVE",
"715 571 CURVE SMOOTH",
"680 620 OFFCURVE",
"614 688 OFFCURVE",
"574 688 CURVE",
"573 687 OFFCURVE",
"573 687 OFFCURVE",
"572 687 CURVE SMOOTH",
"569 687 LINE",
"552 689 OFFCURVE",
"543 690 OFFCURVE",
"541 690 CURVE SMOOTH",
"535 690 OFFCURVE",
"530 689 OFFCURVE",
"525 688 CURVE",
"524 688 OFFCURVE",
"522 688 OFFCURVE",
"519 687 CURVE",
"516 687 OFFCURVE",
"513 687 OFFCURVE",
"512 687 CURVE SMOOTH",
"511 687 OFFCURVE",
"509 687 OFFCURVE",
"506 687 CURVE",
"503 688 OFFCURVE",
"500 688 OFFCURVE",
"499 688 CURVE",
"493 690 OFFCURVE",
"488 699 OFFCURVE",
"484 714 CURVE",
"482 725 OFFCURVE",
"478 742 OFFCURVE",
"473 763 CURVE",
"471 770 OFFCURVE",
"467 777 OFFCURVE",
"461 783 CURVE",
"450 752 OFFCURVE",
"419 728 OFFCURVE",
"368 713 CURVE SMOOTH",
"340 704 OFFCURVE",
"321 696 OFFCURVE",
"311 687 CURVE",
"302 658 OFFCURVE",
"275 599 OFFCURVE",
"229 510 CURVE SMOOTH",
"222 496 OFFCURVE",
"206 462 OFFCURVE",
"181 409 CURVE SMOOTH",
"169 384 OFFCURVE",
"162 366 OFFCURVE",
"160 353 CURVE"
);
},
{
closed = 1;
nodes = (
"336 100 LINE",
"340 173 OFFCURVE",
"362 215 OFFCURVE",
"415 284 CURVE SMOOTH",
"456 337 OFFCURVE",
"473 360 OFFCURVE",
"477 408 CURVE",
"398 373 OFFCURVE",
"366 335 OFFCURVE",
"333 279 CURVE SMOOTH",
"324 264 OFFCURVE",
"318 254 OFFCURVE",
"313 248 CURVE",
"306 242 OFFCURVE",
"300 239 OFFCURVE",
"293 239 CURVE",
"260 242 OFFCURVE",
"241 254 OFFCURVE",
"238 274 CURVE",
"231 270 OFFCURVE",
"222 268 OFFCURVE",
"213 268 CURVE SMOOTH",
"174 268 OFFCURVE",
"143 293 OFFCURVE",
"118 342 CURVE",
"123 373 OFFCURVE",
"139 417 OFFCURVE",
"165 473 CURVE SMOOTH",
"171 486 OFFCURVE",
"181 507 OFFCURVE",
"194 534 CURVE SMOOTH",
"241 630 OFFCURVE",
"258 665 OFFCURVE",
"273 722 CURVE",
"275 734 OFFCURVE",
"276 744 OFFCURVE",
"276 753 CURVE SMOOTH",
"276 758 OFFCURVE",
"273 781 OFFCURVE",
"268 822 CURVE",
"270 822 LINE",
"273 822 LINE SMOOTH",
"274 822 OFFCURVE",
"276 822 OFFCURVE",
"277 822 CURVE",
"278 823 LINE",
"315 823 OFFCURVE",
"353 812 OFFCURVE",
"394 789 CURVE SMOOTH",
"403 784 OFFCURVE",
"407 781 OFFCURVE",
"407 780 CURVE",
"430 819 OFFCURVE",
"448 839 OFFCURVE",
"463 839 CURVE",
"481 830 OFFCURVE",
"496 818 OFFCURVE",
"507 803 CURVE",
"515 790 OFFCURVE",
"523 769 OFFCURVE",
"532 738 CURVE",
"539 739 OFFCURVE",
"546 740 OFFCURVE",
"553 740 CURVE SMOOTH",
"620 740 OFFCURVE",
"686 697 OFFCURVE",
"751 612 CURVE SMOOTH",
"827 513 OFFCURVE",
"865 377 OFFCURVE",
"865 205 CURVE SMOOTH",
"865 170 OFFCURVE",
"863 135 OFFCURVE",
"860 100 CURVE"
);
}
);
width = 1000;
}
);
unicode = 004C;
},
{
glyphname = M;
layers = (
{
layerId = "2A91B3D2-AC67-40A1-AF7C-F75DCB303A46";
name = Regular;
paths = (
{
closed = 1;
nodes = (
"725 151 LINE",
"725 292 OFFCURVE",
"674 345 OFFCURVE",
"595 390 CURVE SMOOTH",
"562 409 OFFCURVE",
"546 427 OFFCURVE",
"546 443 CURVE SMOOTH",
"546 455 OFFCURVE",
"552 459 OFFCURVE",
"571 470 CURVE SMOOTH",
"607 491 OFFCURVE",
"620 508 OFFCURVE",
"620 548 CURVE SMOOTH",
"620 585 OFFCURVE",
"600 615 OFFCURVE",
"561 638 CURVE SMOOTH",
"540 651 OFFCURVE",
"532 656 OFFCURVE",
"532 668 CURVE SMOOTH",
"532 683 OFFCURVE",
"536 696 OFFCURVE",
"545 707 CURVE",
"556 723 OFFCURVE",
"557 726 OFFCURVE",
"557 743 CURVE SMOOTH",
"557 771 OFFCURVE",
"529 794 OFFCURVE",
"500 794 CURVE SMOOTH",
"472 794 OFFCURVE",
"445 771 OFFCURVE",
"445 743 CURVE SMOOTH",
"445 730 OFFCURVE",
"449 719 OFFCURVE",
"458 708 CURVE",
"466 697 OFFCURVE",
"470 683 OFFCURVE",
"470 668 CURVE SMOOTH",
"470 656 OFFCURVE",
"461 649 OFFCURVE",
"441 638 CURVE SMOOTH",
"402 615 OFFCURVE",
"383 585 OFFCURVE",
"383 548 CURVE SMOOTH",
"383 515 OFFCURVE",
"399 489 OFFCURVE",
"432 470 CURVE SMOOTH",
"445 462 OFFCURVE",
"456 452 OFFCURVE",
"456 443 CURVE SMOOTH",
"456 427 OFFCURVE",
"440 409 OFFCURVE",
"407 390 CURVE SMOOTH",
"327 342 OFFCURVE",
"278 291 OFFCURVE",
"278 151 CURVE"
);
},
{
closed = 1;
nodes = (
"234 101 LINE",
"233 116 OFFCURVE",
"233 136 OFFCURVE",
"233 159 CURVE SMOOTH",
"233 282 OFFCURVE",
"268 371 OFFCURVE",
"400 438 CURVE",
"356 451 OFFCURVE",
"330 500 OFFCURVE",
"330 549 CURVE SMOOTH",
"330 606 OFFCURVE",
"358 646 OFFCURVE",
"415 669 CURVE",
"401 694 OFFCURVE",
"394 717 OFFCURVE",
"394 740 CURVE SMOOTH",
"394 797 OFFCURVE",
"445 837 OFFCURVE",
"502 837 CURVE SMOOTH",
"559 837 OFFCURVE",
"609 796 OFFCURVE",
"609 740 CURVE SMOOTH",
"609 717 OFFCURVE",
"602 694 OFFCURVE",
"587 669 CURVE",
"644 646 OFFCURVE",
"673 606 OFFCURVE",
"673 549 CURVE SMOOTH",
"673 502 OFFCURVE",
"645 451 OFFCURVE",
"602 438 CURVE",
"735 370 OFFCURVE",
"770 283 OFFCURVE",
"770 159 CURVE SMOOTH",
"770 138 OFFCURVE",
"769 118 OFFCURVE",
"768 101 CURVE"
);
}
);
width = 1000;
}
);
unicode = 004D;
},
{
glyphname = N;
layers = (
{
layerId = "2A91B3D2-AC67-40A1-AF7C-F75DCB303A46";
name = Regular;
paths = (
{
closed = 1;
nodes = (
"535 390 OFFCURVE",
"524 383 OFFCURVE",
"503 383 CURVE SMOOTH",
"480 383 OFFCURVE",
"468 390 OFFCURVE",
"468 405 CURVE SMOOTH",
"468 546 OFFCURVE",
"360 629 OFFCURVE",
"281 629 CURVE SMOOTH",
"213 629 OFFCURVE",
"170 592 OFFCURVE",
"170 525 CURVE SMOOTH",
"170 478 OFFCURVE",
"238 384 OFFCURVE",
"277 352 CURVE SMOOTH",
"290 341 OFFCURVE",
"312 336 OFFCURVE",
"343 336 CURVE SMOOTH",
"376 336 OFFCURVE",
"428 342 OFFCURVE",
"501 354 CURVE",
"574 342 OFFCURVE",
"627 336 OFFCURVE",
"660 336 CURVE SMOOTH",
"724 336 OFFCURVE",
"749 366 OFFCURVE",
"793 431 CURVE SMOOTH",
"820 470 OFFCURVE",
"833 502 OFFCURVE",
"833 525 CURVE SMOOTH",
"833 592 OFFCURVE",
"790 629 OFFCURVE",
"722 629 CURVE SMOOTH",
"646 629 OFFCURVE",
"535 546 OFFCURVE",
"535 405 CURVE SMOOTH"
);
},
{
closed = 1;
nodes = (
"806 475 OFFCURVE",
"732 393 OFFCURVE",
"692 373 CURVE",
"675 370 OFFCURVE",
"659 369 OFFCURVE",
"642 369 CURVE SMOOTH",
"590 369 OFFCURVE",
"564 379 OFFCURVE",
"565 400 CURVE",
"566 528 OFFCURVE",
"651 598 OFFCURVE",
"720 598 CURVE SMOOTH",
"768 598 OFFCURVE",
"806 573 OFFCURVE",
"806 526 CURVE SMOOTH"
);
},
{
closed = 1;
nodes = (
"687 233 OFFCURVE",
"572 241 OFFCURVE",
"503 241 CURVE SMOOTH",
"470 241 OFFCURVE",
"440 240 OFFCURVE",
"415 237 CURVE SMOOTH",
"385 234 LINE SMOOTH",
"340 228 OFFCURVE",
"317 220 OFFCURVE",
"317 209 CURVE SMOOTH",
"317 197 OFFCURVE",
"328 191 OFFCURVE",
"351 191 CURVE SMOOTH",
"360 191 OFFCURVE",
"379 192 OFFCURVE",
"406 195 CURVE SMOOTH",
"455 200 OFFCURVE",
"487 203 OFFCURVE",
"502 203 CURVE SMOOTH",
"519 203 OFFCURVE",
"544 201 OFFCURVE",
"577 197 CURVE SMOOTH",
"610 193 OFFCURVE",
"635 191 OFFCURVE",
"652 191 CURVE SMOOTH",
"675 191 OFFCURVE",
"687 197 OFFCURVE",
"687 208 CURVE SMOOTH"
);
},
{
closed = 1;
nodes = (
"756 121 OFFCURVE",
"671 93 OFFCURVE",
"502 93 CURVE SMOOTH",
"335 93 OFFCURVE",
"250 121 OFFCURVE",
"249 178 CURVE SMOOTH",
"245 290 OFFCURVE",
"224 336 OFFCURVE",
"172 407 CURVE SMOOTH",
"139 450 OFFCURVE",
"123 489 OFFCURVE",
"123 524 CURVE SMOOTH",
"123 608 OFFCURVE",
"194 673 OFFCURVE",
"278 673 CURVE SMOOTH",
"321 673 OFFCURVE",
"363 657 OFFCURVE",
"402 625 CURVE",
"402 644 OFFCURVE",
"403 663 OFFCURVE",
"405 681 CURVE",
"406 687 OFFCURVE",
"408 695 OFFCURVE",
"413 704 CURVE",
"420 721 OFFCURVE",
"439 741 OFFCURVE",
"471 762 CURVE",
"471 791 LINE",
"420 822 LINE",
"420 867 LINE",
"466 867 LINE",
"481 913 LINE",
"523 913 LINE",
"540 867 LINE",
"585 867 LINE",
"585 822 LINE",
"534 791 LINE",
"534 762 LINE",
"566 739 OFFCURVE",
"585 719 OFFCURVE",
"592 704 CURVE SMOOTH",
"600 687 OFFCURVE",
"601 662 OFFCURVE",
"604 625 CURVE",
"643 657 OFFCURVE",
"683 673 OFFCURVE",
"726 673 CURVE SMOOTH",
"809 673 OFFCURVE",
"882 611 OFFCURVE",
"882 524 CURVE SMOOTH",
"882 489 OFFCURVE",
"866 450 OFFCURVE",
"833 406 CURVE SMOOTH",
"824 394 OFFCURVE",
"815 380 OFFCURVE",
"804 365 CURVE",
"765 305 OFFCURVE",
"758 245 OFFCURVE",
"757 178 CURVE SMOOTH"
);
},
{
closed = 1;
nodes = (
"198 571 OFFCURVE",
"237 598 OFFCURVE",
"282 598 CURVE SMOOTH",
"353 598 OFFCURVE",
"435 528 OFFCURVE",
"438 400 CURVE",
"439 389 OFFCURVE",
"432 382 OFFCURVE",
"418 377 CURVE SMOOTH",
"403 372 OFFCURVE",
"385 369 OFFCURVE",
"362 369 CURVE SMOOTH",
"345 369 OFFCURVE",
"328 370 OFFCURVE",
"311 373 CURVE",
"267 394 OFFCURVE",
"198 477 OFFCURVE",
"198 526 CURVE SMOOTH"
);
}
);
width = 1000;
}
);
unicode = 004E;
},
{
glyphname = O;
layers = (
{
layerId = "2A91B3D2-AC67-40A1-AF7C-F75DCB303A46";
name = Regular;
paths = (
{
closed = 1;
nodes = (
"293 211 OFFCURVE",
"302 205 OFFCURVE",
"321 205 CURVE SMOOTH",
"332 205 OFFCURVE",
"347 206 OFFCURVE",
"367 208 CURVE SMOOTH",
"386 210 OFFCURVE",
"400 211 OFFCURVE",
"408 211 CURVE",
"483 214 LINE",
"490 215 OFFCURVE",
"497 215 OFFCURVE",
"502 215 CURVE SMOOTH",
"521 215 OFFCURVE",
"545 214 OFFCURVE",
"575 211 CURVE",
"611 209 OFFCURVE",
"635 208 OFFCURVE",
"648 207 CURVE",
"651 207 OFFCURVE",
"656 207 OFFCURVE",
"663 206 CURVE SMOOTH",
"670 205 OFFCURVE",
"675 205 OFFCURVE",
"678 205 CURVE SMOOTH",
"697 205 OFFCURVE",
"706 212 OFFCURVE",
"706 225 CURVE SMOOTH",
"706 252 OFFCURVE",
"626 262 OFFCURVE",
"539 265 CURVE SMOOTH",
"526 265 OFFCURVE",
"513 265 OFFCURVE",
"500 265 CURVE SMOOTH",
"409 265 OFFCURVE",
"346 258 OFFCURVE",
"311 243 CURVE SMOOTH",
"299 238 OFFCURVE",
"293 231 OFFCURVE",
"293 224 CURVE SMOOTH"
);
},
{
closed = 1;
nodes = (
"119 747 OFFCURVE",
"105 733 OFFCURVE",
"105 716 CURVE SMOOTH",
"105 699 OFFCURVE",
"119 684 OFFCURVE",
"136 684 CURVE SMOOTH",
"156 684 OFFCURVE",
"166 695 OFFCURVE",
"166 716 CURVE SMOOTH",
"166 737 OFFCURVE",
"156 747 OFFCURVE",
"136 747 CURVE SMOOTH"
);
},
{
closed = 1;
nodes = (
"279 826 OFFCURVE",
"268 816 OFFCURVE",
"268 795 CURVE SMOOTH",
"268 774 OFFCURVE",
"279 763 OFFCURVE",
"300 763 CURVE SMOOTH",
"320 763 OFFCURVE",
"330 774 OFFCURVE",
"330 795 CURVE SMOOTH",
"330 816 OFFCURVE",
"320 826 OFFCURVE",
"300 826 CURVE SMOOTH"
);
},
{
closed = 1;
nodes = (
"683 826 OFFCURVE",
"669 811 OFFCURVE",
"669 795 CURVE SMOOTH",
"669 774 OFFCURVE",
"679 763 OFFCURVE",
"699 763 CURVE SMOOTH",
"720 763 OFFCURVE",
"730 774 OFFCURVE",
"730 795 CURVE SMOOTH",
"730 816 OFFCURVE",
"720 826 OFFCURVE",
"699 826 CURVE SMOOTH"
);
},
{
closed = 1;
nodes = (
"842 747 OFFCURVE",
"832 737 OFFCURVE",
"832 716 CURVE SMOOTH",
"832 695 OFFCURVE",
"842 684 OFFCURVE",
"862 684 CURVE SMOOTH",
"883 684 OFFCURVE",
"893 695 OFFCURVE",
"893 716 CURVE SMOOTH",
"893 733 OFFCURVE",
"879 747 OFFCURVE",
"862 747 CURVE SMOOTH"
);
},
{
closed = 1;
nodes = (
"771 102 OFFCURVE",
"597 97 OFFCURVE",
"554 94 CURVE",
"521 93 LINE SMOOTH",
"512 93 OFFCURVE",
"504 93 OFFCURVE",
"499 93 CURVE SMOOTH",
"398 93 OFFCURVE",
"321 102 OFFCURVE",
"266 119 CURVE SMOOTH",
"241 127 OFFCURVE",
"228 137 OFFCURVE",
"228 150 CURVE SMOOTH",
"228 176 OFFCURVE",
"235 203 OFFCURVE",
"248 232 CURVE",
"257 249 OFFCURVE",
"261 262 OFFCURVE",
"261 271 CURVE SMOOTH",
"261 289 OFFCURVE",
"241 321 OFFCURVE",
"202 366 CURVE SMOOTH",
"179 393 OFFCURVE",
"168 408 OFFCURVE",
"168 413 CURVE",
"167 418 OFFCURVE",
"165 429 OFFCURVE",
"160 447 CURVE SMOOTH",
"144 510 LINE SMOOTH",
"135 546 OFFCURVE",
"127 586 OFFCURVE",
"123 639 CURVE",
"84 656 OFFCURVE",
"65 682 OFFCURVE",
"65 716 CURVE SMOOTH",
"65 755 OFFCURVE",
"97 786 OFFCURVE",
"136 786 CURVE SMOOTH",
"173 786 OFFCURVE",
"206 755 OFFCURVE",
"206 716 CURVE SMOOTH",
"206 713 OFFCURVE",
"205 706 OFFCURVE",
"203 696 CURVE",
"201 683 OFFCURVE",
"200 673 OFFCURVE",
"200 668 CURVE SMOOTH",
"200 632 OFFCURVE",
"227 586 OFFCURVE",
"280 531 CURVE",
"285 572 OFFCURVE",
"287 607 OFFCURVE",
"287 638 CURVE SMOOTH",
"287 675 OFFCURVE",
"283 702 OFFCURVE",
"276 719 CURVE SMOOTH",
"271 732 OFFCURVE",
"263 741 OFFCURVE",
"252 748 CURVE SMOOTH",
"237 757 OFFCURVE",
"229 774 OFFCURVE",
"229 797 CURVE SMOOTH",
"229 836 OFFCURVE",
"260 867 OFFCURVE",
"300 867 CURVE SMOOTH",
"337 867 OFFCURVE",
"370 836 OFFCURVE",
"370 797 CURVE SMOOTH",
"370 792 OFFCURVE",
"369 784 OFFCURVE",
"366 772 CURVE SMOOTH",
"363 760 OFFCURVE",
"362 750 OFFCURVE",
"362 743 CURVE SMOOTH",
"362 694 OFFCURVE",
"385 623 OFFCURVE",
"430 529 CURVE",
"435 552 OFFCURVE",
"442 587 OFFCURVE",
"451 633 CURVE",
"455 664 OFFCURVE",
"457 689 OFFCURVE",
"457 710 CURVE SMOOTH",
"457 745 OFFCURVE",
"451 777 OFFCURVE",
"438 806 CURVE SMOOTH",
"433 817 OFFCURVE",
"430 826 OFFCURVE",
"430 831 CURVE SMOOTH",
"430 870 OFFCURVE",
"461 901 OFFCURVE",
"500 901 CURVE SMOOTH",
"537 901 OFFCURVE",
"568 870 OFFCURVE",
"568 831 CURVE SMOOTH",
"568 824 OFFCURVE",
"565 814 OFFCURVE",
"559 799 CURVE SMOOTH",
"544 763 OFFCURVE",
"542 757 OFFCURVE",
"542 710 CURVE SMOOTH",
"542 673 OFFCURVE",
"547 632 OFFCURVE",
"556 585 CURVE SMOOTH",
"559 568 OFFCURVE",
"563 549 OFFCURVE",
"568 529 CURVE",
"613 624 OFFCURVE",
"635 696 OFFCURVE",
"635 743 CURVE SMOOTH",
"635 750 OFFCURVE",
"634 759 OFFCURVE",
"632 771 CURVE",
"629 782 OFFCURVE",
"628 791 OFFCURVE",
"628 797 CURVE SMOOTH",
"628 837 OFFCURVE",
"659 867 OFFCURVE",
"699 867 CURVE SMOOTH",
"738 867 OFFCURVE",
"769 834 OFFCURVE",
"769 797 CURVE SMOOTH",
"769 774 OFFCURVE",
"761 757 OFFCURVE",
"746 747 CURVE SMOOTH",
"710 723 OFFCURVE",
"711 676 OFFCURVE",
"711 637 CURVE SMOOTH",
"711 608 OFFCURVE",
"713 572 OFFCURVE",
"718 531 CURVE",
"771 586 OFFCURVE",
"798 632 OFFCURVE",
"798 668 CURVE SMOOTH",
"798 672 OFFCURVE",
"797 681 OFFCURVE",
"795 696 CURVE",
"793 707 OFFCURVE",
"792 713 OFFCURVE",
"792 716 CURVE SMOOTH",
"792 755 OFFCURVE",
"825 786 OFFCURVE",
"862 786 CURVE SMOOTH",
"901 786 OFFCURVE",
"933 755 OFFCURVE",
"933 716 CURVE SMOOTH",
"933 683 OFFCURVE",
"914 657 OFFCURVE",
"875 639 CURVE",
"871 588 OFFCURVE",
"862 533 OFFCURVE",
"833 428 CURVE",
"832 423 OFFCURVE",
"831 418 OFFCURVE",
"831 413 CURVE",
"830 408 OFFCURVE",
"824 399 OFFCURVE",
"811 384 CURVE SMOOTH",
"796 366 LINE SMOOTH",
"757 319 OFFCURVE",
"737 288 OFFCURVE",
"737 271 CURVE SMOOTH",
"737 264 OFFCURVE",
"741 251 OFFCURVE",
"749 233 CURVE SMOOTH",
"768 190 OFFCURVE",
"771 183 OFFCURVE",
"771 150 CURVE SMOOTH"
);
},
{
closed = 1;
nodes = (
"483 864 OFFCURVE",
"469 850 OFFCURVE",
"469 833 CURVE SMOOTH",
"469 817 OFFCURVE",
"483 802 OFFCURVE",
"500 802 CURVE SMOOTH",
"520 802 OFFCURVE",
"530 812 OFFCURVE",
"530 833 CURVE SMOOTH",
"530 850 OFFCURVE",
"516 864 OFFCURVE",
"500 864 CURVE SMOOTH"
);
},
{
closed = 1;
nodes = (
"725 392 OFFCURVE",
"702 402 OFFCURVE",
"656 409 CURVE SMOOTH",
"617 414 OFFCURVE",
"565 417 OFFCURVE",
"500 417 CURVE SMOOTH",
"435 417 OFFCURVE",
"383 414 OFFCURVE",
"343 408 CURVE SMOOTH",
"297 401 OFFCURVE",
"274 390 OFFCURVE",
"274 376 CURVE SMOOTH",
"274 364 OFFCURVE",
"285 358 OFFCURVE",
"306 358 CURVE SMOOTH",
"317 358 OFFCURVE",
"333 359 OFFCURVE",
"353 360 CURVE",
"376 362 OFFCURVE",
"391 363 OFFCURVE",
"400 364 CURVE",
"481 367 LINE",
"489 367 OFFCURVE",
"496 367 OFFCURVE",
"502 367 CURVE SMOOTH",
"531 367 OFFCURVE",
"575 365 OFFCURVE",
"634 361 CURVE",
"645 361 OFFCURVE",
"661 360 OFFCURVE",
"682 359 CURVE",
"688 358 OFFCURVE",
"692 358 OFFCURVE",
"695 358 CURVE SMOOTH",
"715 358 OFFCURVE",
"725 364 OFFCURVE",
"725 377 CURVE SMOOTH"
);
}
);
width = 1000;
}
);
unicode = 004F;
},
{
glyphname = P;
layers = (
{
layerId = "2A91B3D2-AC67-40A1-AF7C-F75DCB303A46";
name = Regular;
paths = (
{
closed = 1;
nodes = (
"218 103 LINE",
"194 127 LINE",
"194 215 LINE",
"321 340 LINE",
"321 589 LINE",
"223 685 LINE",
"223 797 LINE",
"258 832 LINE",
"347 832 LINE",
"369 810 LINE",
"369 779 LINE",
"417 779 LINE",
"417 810 LINE",
"438 832 LINE",
"577 832 LINE",
"598 810 LINE",
"598 779 LINE",
"646 779 LINE",
"646 810 LINE",
"667 832 LINE",
"757 832 LINE",
"792 797 LINE",
"792 685 LINE",
"694 589 LINE",
"694 340 LINE",
"821 215 LINE",
"821 127 LINE",
"796 103 LINE"
);
},
{
closed = 1;
nodes = (
"366 369 LINE",
"366 327 LINE",
"649 327 LINE",
"649 369 LINE"
);
},
{
closed = 1;
nodes = (
"366 594 LINE",
"366 552 LINE",
"649 552 LINE",
"649 594 LINE"
);
}
);
width = 1000;
}
);
unicode = 0050;
},
{
glyphname = Q;
layers = (
{
layerId = "2A91B3D2-AC67-40A1-AF7C-F75DCB303A46";
name = Regular;
paths = (
{
closed = 1;
nodes = (
"439 385 LINE SMOOTH",
"396 385 OFFCURVE",
"375 378 OFFCURVE",
"375 365 CURVE SMOOTH",
"375 341 OFFCURVE",
"405 344 OFFCURVE",
"500 344 CURVE SMOOTH",
"583 344 OFFCURVE",
"625 351 OFFCURVE",
"625 365 CURVE SMOOTH",
"625 378 OFFCURVE",
"604 385 OFFCURVE",
"561 385 CURVE SMOOTH"
);
},
{
closed = 1;
nodes = (
"439 463 LINE SMOOTH",
"418 463 OFFCURVE",
"402 462 OFFCURVE",
"391 460 CURVE",
"380 457 OFFCURVE",
"375 452 OFFCURVE",
"375 443 CURVE SMOOTH",
"375 433 OFFCURVE",
"384 427 OFFCURVE",
"401 426 CURVE SMOOTH",
"423 424 OFFCURVE",
"456 423 OFFCURVE",
"500 423 CURVE SMOOTH",
"544 423 OFFCURVE",
"577 424 OFFCURVE",
"600 426 CURVE SMOOTH",
"617 427 OFFCURVE",
"625 433 OFFCURVE",
"625 443 CURVE SMOOTH",
"625 456 OFFCURVE",
"604 463 OFFCURVE",
"561 463 CURVE SMOOTH"
);
},
{
closed = 1;
nodes = (
"671 402 OFFCURVE",
"675 387 OFFCURVE",
"683 363 CURVE SMOOTH",
"688 348 OFFCURVE",
"696 321 OFFCURVE",
"696 313 CURVE SMOOTH",
"696 284 OFFCURVE",
"666 267 OFFCURVE",
"607 261 CURVE",
"662 241 OFFCURVE",
"693 237 OFFCURVE",
"729 237 CURVE SMOOTH",
"744 237 OFFCURVE",
"803 240 OFFCURVE",
"802 240 CURVE",
"851 240 OFFCURVE",
"877 213 OFFCURVE",
"905 160 CURVE",
"892 141 OFFCURVE",
"880 122 OFFCURVE",
"868 103 CURVE SMOOTH",
"854 82 OFFCURVE",
"837 67 OFFCURVE",
"818 59 CURVE",
"811 87 OFFCURVE",
"777 89 OFFCURVE",
"708 94 CURVE SMOOTH",
"604 103 OFFCURVE",
"535 125 OFFCURVE",
"500 160 CURVE",
"467 127 OFFCURVE",
"418 107 OFFCURVE",
"351 101 CURVE SMOOTH",
"324 98 OFFCURVE",
"248 91 OFFCURVE",
"231 88 CURVE SMOOTH",
"201 82 OFFCURVE",
"185 72 OFFCURVE",
"182 59 CURVE",
"161 68 OFFCURVE",
"140 89 OFFCURVE",
"121 122 CURVE SMOOTH",
"112 137 OFFCURVE",
"104 149 OFFCURVE",
"95 160 CURVE",
"123 215 OFFCURVE",
"147 240 OFFCURVE",
"198 240 CURVE",
"197 240 OFFCURVE",
"256 237 OFFCURVE",
"271 237 CURVE SMOOTH",
"310 237 OFFCURVE",
"351 245 OFFCURVE",
"392 261 CURVE",
"333 267 OFFCURVE",
"304 284 OFFCURVE",
"304 313 CURVE SMOOTH",
"304 322 OFFCURVE",
"308 338 OFFCURVE",
"317 359 CURVE SMOOTH",
"326 380 OFFCURVE",
"330 395 OFFCURVE",
"330 404 CURVE",
"279 467 OFFCURVE",
"254 521 OFFCURVE",
"254 568 CURVE SMOOTH",
"254 677 OFFCURVE",
"395 776 OFFCURVE",
"440 783 CURVE",
"422 804 OFFCURVE",
"413 828 OFFCURVE",
"413 853 CURVE SMOOTH",
"413 902 OFFCURVE",
"449 929 OFFCURVE",
"500 929 CURVE SMOOTH",
"549 929 OFFCURVE",
"587 901 OFFCURVE",
"587 853 CURVE SMOOTH",
"587 828 OFFCURVE",
"578 805 OFFCURVE",
"560 783 CURVE",
"591 775 OFFCURVE",
"681 719 OFFCURVE",
"722 650 CURVE SMOOTH",
"738 624 OFFCURVE",
"746 597 OFFCURVE",
"746 568 CURVE SMOOTH",
"746 519 OFFCURVE",
"721 466 OFFCURVE",
"671 409 CURVE"
);
},
{
closed = 1;
nodes = (
"523 525 LINE",
"523 583 LINE",
"566 583 LINE",
"566 630 LINE",
"523 630 LINE",
"523 684 LINE",
"477 684 LINE",
"477 630 LINE",
"434 630 LINE",
"434 583 LINE",
"477 583 LINE",
"477 525 LINE"
);
},
{
closed = 1;
nodes = (
"483 878 OFFCURVE",
"467 864 OFFCURVE",
"467 848 CURVE SMOOTH",
"467 831 OFFCURVE",
"483 817 OFFCURVE",
"500 817 CURVE SMOOTH",
"521 817 OFFCURVE",
"531 827 OFFCURVE",
"531 848 CURVE SMOOTH",
"531 868 OFFCURVE",
"521 878 OFFCURVE",
"500 878 CURVE SMOOTH"
);
}
);
width = 1000;
}
);
unicode = 0051;
},
{
glyphname = R;
layers = (
{
layerId = "2A91B3D2-AC67-40A1-AF7C-F75DCB303A46";
name = Regular;
paths = (
{
closed = 1;
nodes = (
"178 382 OFFCURVE",
"159 366 OFFCURVE",
"159 343 CURVE SMOOTH",
"159 339 OFFCURVE",
"160 335 OFFCURVE",
"163 330 CURVE",
"184 330 OFFCURVE",
"204 346 OFFCURVE",
"204 367 CURVE SMOOTH",
"204 370 OFFCURVE",
"203 375 OFFCURVE",
"201 382 CURVE"
);
},
{
closed = 1;
nodes = (
"815 220 OFFCURVE",
"815 235 OFFCURVE",
"815 235 CURVE",
"815 371 OFFCURVE",
"780 482 OFFCURVE",
"711 569 CURVE SMOOTH",
"652 644 OFFCURVE",
"597 682 OFFCURVE",
"548 682 CURVE SMOOTH",
"545 682 OFFCURVE",
"541 681 OFFCURVE",
"536 680 CURVE",
"535 680 OFFCURVE",
"535 680 OFFCURVE",
"534 681 CURVE",
"533 681 OFFCURVE",
"532 681 OFFCURVE",
"531 681 CURVE SMOOTH",
"529 681 LINE SMOOTH",
"518 681 OFFCURVE",
"512 677 OFFCURVE",
"512 668 CURVE SMOOTH",
"512 664 OFFCURVE",
"515 660 OFFCURVE",
"520 655 CURVE",
"565 652 OFFCURVE",
"614 620 OFFCURVE",
"667 559 CURVE SMOOTH",
"735 480 OFFCURVE",
"769 366 OFFCURVE",
"769 219 CURVE SMOOTH",
"769 218 OFFCURVE",
"769 215 OFFCURVE",
"768 211 CURVE",
"768 207 OFFCURVE",
"768 204 OFFCURVE",
"768 202 CURVE SMOOTH",
"768 192 LINE SMOOTH",
"768 187 OFFCURVE",
"768 185 OFFCURVE",
"768 185 CURVE",
"769 168 OFFCURVE",
"780 156 OFFCURVE",
"793 156 CURVE SMOOTH",
"804 156 OFFCURVE",
"813 168 OFFCURVE",
"814 189 CURVE SMOOTH"
);
},
{
closed = 1;
nodes = (
"292 548 LINE",
"294 548 LINE SMOOTH",
"295 548 OFFCURVE",
"296 548 OFFCURVE",
"297 547 CURVE",
"298 547 LINE SMOOTH",
"331 547 OFFCURVE",
"382 591 OFFCURVE",
"382 615 CURVE SMOOTH",
"382 618 OFFCURVE",
"381 622 OFFCURVE",
"378 625 CURVE",
"370 630 OFFCURVE",
"362 632 OFFCURVE",
"353 632 CURVE SMOOTH",
"321 632 OFFCURVE",
"281 601 OFFCURVE",
"281 569 CURVE SMOOTH",
"281 560 OFFCURVE",
"284 553 OFFCURVE",
"291 548 CURVE"
);
},
{
closed = 1;
nodes = (
"344 102 LINE",
"347 181 OFFCURVE",
"375 224 OFFCURVE",
"422 283 CURVE SMOOTH",
"463 335 OFFCURVE",
"481 359 OFFCURVE",
"486 407 CURVE",
"445 390 OFFCURVE",
"412 369 OFFCURVE",
"388 343 CURVE",
"377 330 OFFCURVE",
"368 319 OFFCURVE",
"362 310 CURVE",
"353 295 OFFCURVE",
"340 273 OFFCURVE",
"321 245 CURVE",
"316 239 OFFCURVE",
"310 236 OFFCURVE",
"303 235 CURVE",
"282 235 OFFCURVE",
"271 248 OFFCURVE",
"271 274 CURVE",
"262 263 OFFCURVE",
"253 258 OFFCURVE",
"242 258 CURVE SMOOTH",
"241 258 OFFCURVE",
"233 260 OFFCURVE",
"218 264 CURVE SMOOTH",
"166 277 OFFCURVE",
"148 293 OFFCURVE",
"125 342 CURVE",
"134 403 OFFCURVE",
"181 494 OFFCURVE",
"228 589 CURVE SMOOTH",
"253 640 OFFCURVE",
"271 683 OFFCURVE",
"281 720 CURVE",
"282 731 OFFCURVE",
"283 742 OFFCURVE",
"283 753 CURVE SMOOTH",
"283 758 OFFCURVE",
"281 780 OFFCURVE",
"276 820 CURVE",
"278 820 LINE",
"281 820 LINE SMOOTH",
"282 820 OFFCURVE",
"283 820 OFFCURVE",
"284 821 CURVE",
"286 821 LINE SMOOTH",
"323 821 OFFCURVE",
"364 809 OFFCURVE",
"409 784 CURVE SMOOTH",
"414 781 OFFCURVE",
"416 780 OFFCURVE",
"416 779 CURVE",
"440 818 OFFCURVE",
"458 838 OFFCURVE",
"471 838 CURVE",
"512 817 OFFCURVE",
"522 801 OFFCURVE",
"542 736 CURVE",
"548 738 OFFCURVE",
"555 739 OFFCURVE",
"563 739 CURVE SMOOTH",
"632 739 OFFCURVE",
"698 696 OFFCURVE",
"763 610 CURVE SMOOTH",
"838 511 OFFCURVE",
"876 376 OFFCURVE",
"876 205 CURVE SMOOTH",
"876 170 OFFCURVE",
"874 135 OFFCURVE",
"871 100 CURVE"
);
}
);
width = 1000;
}
);
unicode = 0052;
},
{
glyphname = S;
layers = (
{
layerId = "2A91B3D2-AC67-40A1-AF7C-F75DCB303A46";
name = Regular;
paths = (
{
closed = 1;
nodes = (
"234 101 LINE",
"233 116 OFFCURVE",
"232 135 OFFCURVE",
"232 159 CURVE SMOOTH",
"232 282 OFFCURVE",
"267 370 OFFCURVE",
"400 437 CURVE",
"356 450 OFFCURVE",
"329 500 OFFCURVE",
"329 549 CURVE SMOOTH",
"329 605 OFFCURVE",
"358 645 OFFCURVE",
"415 668 CURVE",
"400 693 OFFCURVE",
"393 716 OFFCURVE",
"393 739 CURVE SMOOTH",
"393 796 OFFCURVE",
"444 836 OFFCURVE",
"501 836 CURVE SMOOTH",
"558 836 OFFCURVE",
"608 795 OFFCURVE",
"608 739 CURVE SMOOTH",
"608 716 OFFCURVE",
"601 693 OFFCURVE",
"586 668 CURVE",
"647 644 OFFCURVE",
"672 598 OFFCURVE",
"672 549 CURVE SMOOTH",
"672 501 OFFCURVE",
"645 450 OFFCURVE",
"602 437 CURVE",
"735 369 OFFCURVE",
"769 283 OFFCURVE",
"769 159 CURVE SMOOTH",
"769 135 OFFCURVE",
"768 116 OFFCURVE",
"767 101 CURVE"
);
}
);
width = 1000;
}
);
unicode = 0053;
},
{
glyphname = k;
layers = (
{
layerId = "2A91B3D2-AC67-40A1-AF7C-F75DCB303A46";
name = Regular;
paths = (
{
closed = 1;
nodes = (
"504 515 OFFCURVE",
"506 520 OFFCURVE",
"511 527 CURVE SMOOTH",
"534 559 OFFCURVE",
"546 583 OFFCURVE",
"553 607 CURVE",
"555 625 OFFCURVE",
"556 637 OFFCURVE",
"556 643 CURVE SMOOTH",
"556 692 OFFCURVE",
"539 717 OFFCURVE",
"504 717 CURVE SMOOTH",
"468 717 OFFCURVE",
"450 692 OFFCURVE",
"450 643 CURVE SMOOTH",
"450 634 OFFCURVE",
"451 622 OFFCURVE",
"453 607 CURVE",
"460 584 OFFCURVE",
"474 557 OFFCURVE",
"495 527 CURVE SMOOTH",
"500 520 OFFCURVE",
"503 515 OFFCURVE",
"503 514 CURVE"
);
},
{
closed = 1;
nodes = (
"837 591 OFFCURVE",
"781 629 OFFCURVE",
"726 629 CURVE SMOOTH",
"653 629 OFFCURVE",
"538 546 OFFCURVE",
"526 401 CURVE",
"526 395 OFFCURVE",
"541 389 OFFCURVE",
"572 382 CURVE SMOOTH",
"598 377 OFFCURVE",
"642 373 OFFCURVE",
"703 372 CURVE",
"714 371 OFFCURVE",
"723 371 OFFCURVE",
"732 371 CURVE SMOOTH",
"736 371 LINE",
"754 371 LINE",
"757 376 OFFCURVE",
"762 383 OFFCURVE",
"769 391 CURVE SMOOTH",
"775 398 OFFCURVE",
"783 408 OFFCURVE",
"792 419 CURVE",
"810 445 OFFCURVE",
"823 467 OFFCURVE",
"830 484 CURVE SMOOTH",
"835 497 OFFCURVE",
"837 507 OFFCURVE",
"837 516 CURVE SMOOTH"
);
},
{
closed = 1;
nodes = (
"470 333 OFFCURVE",
"402 331 OFFCURVE",
"311 324 CURVE SMOOTH",
"274 321 LINE",
"283 288 OFFCURVE",
"288 253 OFFCURVE",
"291 216 CURVE",
"349 235 OFFCURVE",
"420 244 OFFCURVE",
"503 244 CURVE SMOOTH",
"587 244 OFFCURVE",
"658 235 OFFCURVE",
"716 216 CURVE",
"718 257 OFFCURVE",
"723 292 OFFCURVE",
"732 321 CURVE",
"696 324 LINE",
"673 325 OFFCURVE",
"638 328 OFFCURVE",
"593 331 CURVE",
"545 336 OFFCURVE",
"527 337 OFFCURVE",
"503 348 CURVE"
);
},
{
closed = 1;
nodes = (
"169 499 OFFCURVE",
"178 477 OFFCURVE",
"195 449 CURVE",
"204 436 OFFCURVE",
"211 426 OFFCURVE",
"216 419 CURVE SMOOTH",
"226 405 LINE",
"235 396 OFFCURVE",
"243 384 OFFCURVE",
"252 371 CURVE",
"274 371 LINE SMOOTH",
"343 371 OFFCURVE",
"481 381 OFFCURVE",
"481 401 CURVE",
"468 546 OFFCURVE",
"355 629 OFFCURVE",
"280 629 CURVE SMOOTH",
"269 629 OFFCURVE",
"256 627 OFFCURVE",
"243 622 CURVE",
"186 607 OFFCURVE",
"169 553 OFFCURVE",
"169 516 CURVE SMOOTH"
);
},
{
closed = 1;
nodes = (
"544 138 OFFCURVE",
"585 141 OFFCURVE",
"626 146 CURVE SMOOTH",
"660 150 OFFCURVE",
"677 155 OFFCURVE",
"677 162 CURVE SMOOTH",
"677 173 OFFCURVE",
"662 180 OFFCURVE",
"631 185 CURVE SMOOTH",
"586 191 OFFCURVE",
"544 194 OFFCURVE",
"504 194 CURVE SMOOTH",
"463 194 OFFCURVE",
"421 191 OFFCURVE",
"376 185 CURVE SMOOTH",
"345 180 OFFCURVE",
"329 173 OFFCURVE",
"329 162 CURVE SMOOTH",
"329 143 OFFCURVE",
"455 138 OFFCURVE",
"503 138 CURVE SMOOTH"
);
}
);
width = 1000;
}
);
unicode = 006B;
},
{
glyphname = l;
layers = (
{
layerId = "2A91B3D2-AC67-40A1-AF7C-F75DCB303A46";
name = Regular;
paths = (
{
closed = 1;
nodes = (
"502 376 LINE",
"516 376 LINE SMOOTH",
"517 376 OFFCURVE",
"520 376 OFFCURVE",
"523 377 CURVE",
"526 377 OFFCURVE",
"528 377 OFFCURVE",
"530 377 CURVE SMOOTH",
"537 377 OFFCURVE",
"573 376 OFFCURVE",
"637 371 CURVE SMOOTH",
"663 369 OFFCURVE",
"684 368 OFFCURVE",
"699 368 CURVE SMOOTH",
"714 368 OFFCURVE",
"722 370 OFFCURVE",
"722 374 CURVE SMOOTH",
"722 375 OFFCURVE",
"722 376 OFFCURVE",
"721 377 CURVE",
"721 378 LINE",
"721 379 LINE SMOOTH",
"721 415 OFFCURVE",
"574 430 OFFCURVE",
"503 430 CURVE SMOOTH",
"432 430 OFFCURVE",
"286 416 OFFCURVE",
"286 379 CURVE SMOOTH",
"286 377 LINE",
"285 376 OFFCURVE",
"284 375 OFFCURVE",
"284 374 CURVE SMOOTH",
"284 370 OFFCURVE",
"292 368 OFFCURVE",
"307 368 CURVE SMOOTH",
"311 368 OFFCURVE",
"332 369 OFFCURVE",
"370 372 CURVE SMOOTH",
"415 375 OFFCURVE",
"450 377 OFFCURVE",
"475 377 CURVE SMOOTH",
"476 377 OFFCURVE",
"479 377 OFFCURVE",
"482 377 CURVE",
"485 376 OFFCURVE",
"488 376 OFFCURVE",
"489 376 CURVE SMOOTH"
);
},
{
closed = 1;
nodes = (
"637 329 OFFCURVE",
"570 333 OFFCURVE",
"503 333 CURVE SMOOTH",
"441 333 OFFCURVE",
"388 330 OFFCURVE",
"345 325 CURVE",
"329 324 OFFCURVE",
"314 322 OFFCURVE",
"301 320 CURVE",
"311 312 OFFCURVE",
"316 296 OFFCURVE",
"316 271 CURVE SMOOTH",
"316 256 OFFCURVE",
"313 247 OFFCURVE",
"308 243 CURVE",
"363 252 OFFCURVE",
"428 257 OFFCURVE",
"503 257 CURVE SMOOTH",
"578 257 OFFCURVE",
"643 252 OFFCURVE",
"698 243 CURVE",
"693 247 OFFCURVE",
"691 256 OFFCURVE",
"691 271 CURVE SMOOTH",
"691 296 OFFCURVE",
"696 312 OFFCURVE",
"706 320 CURVE"
);
},
{
closed = 1;
nodes = (
"455 213 OFFCURVE",
"408 211 OFFCURVE",
"361 206 CURVE SMOOTH",
"320 203 OFFCURVE",
"299 193 OFFCURVE",
"299 178 CURVE SMOOTH",
"299 157 OFFCURVE",
"367 147 OFFCURVE",
"503 147 CURVE SMOOTH",
"639 147 OFFCURVE",
"707 157 OFFCURVE",
"707 178 CURVE SMOOTH",
"707 185 OFFCURVE",
"702 191 OFFCURVE",
"691 196 CURVE",
"648 212 OFFCURVE",
"554 213 OFFCURVE",
"503 213 CURVE SMOOTH"
);
},
{
closed = 1;
nodes = (
"482 867 OFFCURVE",
"472 857 OFFCURVE",
"472 836 CURVE SMOOTH",
"472 815 OFFCURVE",
"482 804 OFFCURVE",
"503 804 CURVE SMOOTH",
"523 804 OFFCURVE",
"533 815 OFFCURVE",
"533 836 CURVE SMOOTH",
"533 857 OFFCURVE",
"523 867 OFFCURVE",
"503 867 CURVE SMOOTH"
);
},
{
closed = 1;
nodes = (
"849 749 OFFCURVE",
"835 735 OFFCURVE",
"835 719 CURVE SMOOTH",
"835 702 OFFCURVE",
"849 687 OFFCURVE",
"865 687 CURVE SMOOTH",
"886 687 OFFCURVE",
"896 698 OFFCURVE",
"896 719 CURVE SMOOTH",
"896 739 OFFCURVE",
"886 749 OFFCURVE",
"865 749 CURVE SMOOTH"
);
},
{
closed = 1;
nodes = (
"685 829 OFFCURVE",
"671 814 OFFCURVE",
"671 798 CURVE SMOOTH",
"671 781 OFFCURVE",
"685 766 OFFCURVE",
"701 766 CURVE SMOOTH",
"722 766 OFFCURVE",
"733 777 OFFCURVE",
"733 798 CURVE SMOOTH",
"733 819 OFFCURVE",
"722 829 OFFCURVE",
"701 829 CURVE SMOOTH"
);
},
{
closed = 1;
nodes = (
"282 829 OFFCURVE",
"272 819 OFFCURVE",
"272 798 CURVE SMOOTH",
"272 777 OFFCURVE",
"282 766 OFFCURVE",
"303 766 CURVE SMOOTH",
"323 766 OFFCURVE",
"333 777 OFFCURVE",
"333 798 CURVE SMOOTH",
"333 819 OFFCURVE",
"323 829 OFFCURVE",
"303 829 CURVE SMOOTH"
);
},
{
closed = 1;
nodes = (
"118 749 OFFCURVE",
"108 739 OFFCURVE",
"108 719 CURVE SMOOTH",
"108 698 OFFCURVE",
"118 687 OFFCURVE",
"139 687 CURVE SMOOTH",
"159 687 OFFCURVE",
"169 698 OFFCURVE",
"169 719 CURVE SMOOTH",
"169 735 OFFCURVE",
"155 749 OFFCURVE",
"139 749 CURVE SMOOTH"
);
},
{
closed = 1;
nodes = (
"500 653 OFFCURVE",
"497 638 OFFCURVE",
"494 624 CURVE SMOOTH",
"486 588 LINE SMOOTH",
"478 555 OFFCURVE",
"469 529 OFFCURVE",
"458 510 CURVE",
"456 506 OFFCURVE",
"453 501 OFFCURVE",
"448 495 CURVE SMOOTH",
"443 489 OFFCURVE",
"440 484 OFFCURVE",
"439 479 CURVE",
"438 481 OFFCURVE",
"434 486 OFFCURVE",
"427 494 CURVE SMOOTH",
"416 506 OFFCURVE",
"399 525 OFFCURVE",
"388 544 CURVE SMOOTH",
"368 580 OFFCURVE",
"349 625 OFFCURVE",
"331 678 CURVE",
"332 669 OFFCURVE",
"333 657 OFFCURVE",
"333 642 CURVE SMOOTH",
"333 627 OFFCURVE",
"331 596 OFFCURVE",
"326 549 CURVE",
"325 542 OFFCURVE",
"324 531 OFFCURVE",
"321 516 CURVE",
"312 460 LINE",
"267 486 OFFCURVE",
"224 529 OFFCURVE",
"181 588 CURVE",
"189 546 OFFCURVE",
"196 512 OFFCURVE",
"203 485 CURVE SMOOTH",
"215 438 OFFCURVE",
"217 423 OFFCURVE",
"232 418 CURVE",
"301 457 OFFCURVE",
"392 477 OFFCURVE",
"503 477 CURVE SMOOTH",
"615 477 OFFCURVE",
"705 457 OFFCURVE",
"774 418 CURVE",
"787 422 OFFCURVE",
"800 461 OFFCURVE",
"815 536 CURVE",
"816 543 OFFCURVE",
"818 553 OFFCURVE",
"821 566 CURVE",
"825 588 LINE",
"782 529 OFFCURVE",
"739 486 OFFCURVE",
"695 460 CURVE",
"691 479 LINE",
"679 548 OFFCURVE",
"673 599 OFFCURVE",
"673 631 CURVE SMOOTH",
"673 648 OFFCURVE",
"674 663 OFFCURVE",
"676 678 CURVE",
"658 625 OFFCURVE",
"639 580 OFFCURVE",
"618 544 CURVE SMOOTH",
"610 530 OFFCURVE",
"597 513 OFFCURVE",
"579 494 CURVE",
"572 486 OFFCURVE",
"568 481 OFFCURVE",
"567 479 CURVE",
"563 486 OFFCURVE",
"557 497 OFFCURVE",
"548 510 CURVE",
"545 516 OFFCURVE",
"541 525 OFFCURVE",
"536 538 CURVE SMOOTH",
"531 550 OFFCURVE",
"523 579 OFFCURVE",
"512 625 CURVE SMOOTH",
"509 639 OFFCURVE",
"506 654 OFFCURVE",
"503 669 CURVE"
);
}
);
width = 1000;
}
);
unicode = 006C;
},
{
glyphname = m;
lastChange = "2013-10-19 01:17:06 -0500";
layers = (
{
layerId = "2A91B3D2-AC67-40A1-AF7C-F75DCB303A46";
name = Regular;
paths = (
{
closed = 1;
nodes = (
"933 750 LINE",
"644 750 LINE",
"500 1000 LINE",
"356 750 LINE",
"67 750 LINE",
"211 500 LINE",
"67 250 LINE",
"356 250 LINE",
"500 0 LINE",
"644 250 LINE",
"933 250 LINE",
"789 500 LINE"
);
}
);
width = 1000;
}
);
unicode = 006D;
},
{
glyphname = n;
layers = (
{
layerId = "2A91B3D2-AC67-40A1-AF7C-F75DCB303A46";
name = Regular;
paths = (
{
closed = 1;
nodes = (
"458 431 OFFCURVE",
"421 433 OFFCURVE",
"390 436 CURVE SMOOTH",
"380 437 OFFCURVE",
"371 438 OFFCURVE",
"364 439 CURVE",
"369 429 OFFCURVE",
"372 419 OFFCURVE",
"372 408 CURVE SMOOTH",
"372 397 OFFCURVE",
"370 386 OFFCURVE",
"365 377 CURVE",
"379 382 OFFCURVE",
"409 385 OFFCURVE",
"454 388 CURVE SMOOTH",
"468 389 OFFCURVE",
"483 389 OFFCURVE",
"500 389 CURVE SMOOTH",
"566 389 OFFCURVE",
"611 385 OFFCURVE",
"635 377 CURVE",
"630 386 OFFCURVE",
"627 397 OFFCURVE",
"627 408 CURVE SMOOTH",
"627 418 OFFCURVE",
"630 428 OFFCURVE",
"635 439 CURVE",
"596 434 OFFCURVE",
"551 431 OFFCURVE",
"500 431 CURVE SMOOTH"
);
},
{
closed = 1;
nodes = (
"479 884 OFFCURVE",
"461 866 OFFCURVE",
"461 847 CURVE SMOOTH",
"461 826 OFFCURVE",
"479 810 OFFCURVE",
"500 810 CURVE SMOOTH",
"520 810 OFFCURVE",
"539 826 OFFCURVE",
"539 847 CURVE SMOOTH",
"539 867 OFFCURVE",
"520 884 OFFCURVE",
"500 884 CURVE SMOOTH"
);
},
{
closed = 1;
nodes = (
"500 352 LINE SMOOTH",
"473 352 OFFCURVE",
"432 349 OFFCURVE",
"377 344 CURVE",
"361 341 OFFCURVE",
"353 333 OFFCURVE",
"353 320 CURVE SMOOTH",
"353 299 OFFCURVE",
"376 302 OFFCURVE",
"500 302 CURVE SMOOTH",
"597 302 OFFCURVE",
"646 308 OFFCURVE",
"646 320 CURVE SMOOTH",
"646 351 OFFCURVE",
"610 350 OFFCURVE",
"537 351 CURVE SMOOTH",
"530 351 OFFCURVE",
"521 351 OFFCURVE",
"510 352 CURVE"
);
},
{
closed = 1;
nodes = (
"592 467 OFFCURVE",
"649 476 OFFCURVE",
"670 493 CURVE",
"685 504 OFFCURVE",
"695 533 OFFCURVE",
"701 580 CURVE",
"694 663 OFFCURVE",
"565 753 OFFCURVE",
"498 761 CURVE",
"434 753 OFFCURVE",
"306 663 OFFCURVE",
"299 580 CURVE",
"306 531 OFFCURVE",
"310 504 OFFCURVE",
"337 488 CURVE SMOOTH",
"360 474 OFFCURVE",
"414 467 OFFCURVE",
"499 467 CURVE SMOOTH"
);
},
{
closed = 1;
nodes = (
"477 528 LINE",
"477 584 LINE",
"435 584 LINE",
"435 632 LINE",
"477 632 LINE",
"477 686 LINE",
"523 686 LINE",
"523 632 LINE",
"565 632 LINE",
"565 584 LINE",
"523 584 LINE",
"523 528 LINE"
);
},
{
closed = 1;
nodes = (
"493 274 OFFCURVE",
"482 268 OFFCURVE",
"465 255 CURVE SMOOTH",
"442 238 OFFCURVE",
"419 219 OFFCURVE",
"398 216 CURVE",
"373 207 OFFCURVE",
"343 201 OFFCURVE",
"306 198 CURVE",
"295 198 OFFCURVE",
"222 195 OFFCURVE",
"206 192 CURVE SMOOTH",
"179 186 OFFCURVE",
"166 175 OFFCURVE",
"166 158 CURVE",
"169 141 OFFCURVE",
"178 133 OFFCURVE",
"192 133 CURVE SMOOTH",
"195 133 OFFCURVE",
"205 134 OFFCURVE",
"220 137 CURVE SMOOTH",
"239 141 OFFCURVE",
"252 143 OFFCURVE",
"259 143 CURVE SMOOTH",
"339 143 OFFCURVE",
"467 165 OFFCURVE",
"500 228 CURVE",
"520 189 OFFCURVE",
"580 159 OFFCURVE",
"675 148 CURVE SMOOTH",
"708 144 LINE SMOOTH",
"719 143 OFFCURVE",
"730 143 OFFCURVE",
"740 143 CURVE SMOOTH",
"747 143 OFFCURVE",
"761 141 OFFCURVE",
"780 137 CURVE SMOOTH",
"795 134 OFFCURVE",
"804 133 OFFCURVE",
"807 133 CURVE SMOOTH",
"822 133 OFFCURVE",
"831 141 OFFCURVE",
"834 158 CURVE",
"834 191 OFFCURVE",
"797 193 OFFCURVE",
"734 196 CURVE SMOOTH",
"703 197 OFFCURVE",
"645 201 OFFCURVE",
"602 216 CURVE",
"581 220 OFFCURVE",
"568 228 OFFCURVE",
"537 252 CURVE",
"519 267 OFFCURVE",
"506 274 OFFCURVE",
"498 274 CURVE SMOOTH"
);
}
);
width = 1000;
}
);
unicode = 006E;
},
{
glyphname = o;
layers = (
{
layerId = "2A91B3D2-AC67-40A1-AF7C-F75DCB303A46";
name = Regular;
paths = (
{
closed = 1;
nodes = (
"220 395 OFFCURVE",
"226 387 OFFCURVE",
"226 371 CURVE SMOOTH",
"226 350 OFFCURVE",
"216 340 OFFCURVE",
"195 340 CURVE",
"196 340 OFFCURVE",
"195 340 OFFCURVE",
"191 341 CURVE",
"187 341 LINE",
"184 344 OFFCURVE",
"182 351 OFFCURVE",
"182 360 CURVE SMOOTH",
"182 383 OFFCURVE",
"191 395 OFFCURVE",
"208 395 CURVE SMOOTH"
);
},
{
closed = 1;
nodes = (
"291 548 LINE",
"284 553 OFFCURVE",
"281 560 OFFCURVE",
"281 569 CURVE SMOOTH",
"281 600 OFFCURVE",
"321 632 OFFCURVE",
"353 632 CURVE SMOOTH",
"362 632 OFFCURVE",
"370 630 OFFCURVE",
"378 625 CURVE",
"381 622 OFFCURVE",
"382 618 OFFCURVE",
"382 615 CURVE SMOOTH",
"382 587 OFFCURVE",
"330 547 OFFCURVE",
"298 547 CURVE SMOOTH",
"297 547 LINE",
"296 548 OFFCURVE",
"295 548 OFFCURVE",
"294 548 CURVE SMOOTH",
"292 548 LINE"
);
},
{
closed = 1;
nodes = (
"308 782 LINE",
"311 774 OFFCURVE",
"313 766 OFFCURVE",
"313 759 CURVE SMOOTH",
"313 756 OFFCURVE",
"312 750 OFFCURVE",
"310 739 CURVE",
"311 739 LINE",
"316 740 OFFCURVE",
"326 743 OFFCURVE",
"342 749 CURVE",
"349 750 OFFCURVE",
"357 754 OFFCURVE",
"364 759 CURVE",
"339 774 OFFCURVE",
"336 774 OFFCURVE",
"309 782 CURVE"
);
},
{
closed = 1;
nodes = (
"167 326 OFFCURVE",
"196 304 OFFCURVE",
"223 304 CURVE SMOOTH",
"226 304 LINE SMOOTH",
"229 304 OFFCURVE",
"238 309 OFFCURVE",
"252 318 CURVE",
"259 322 OFFCURVE",
"263 324 OFFCURVE",
"266 324 CURVE",
"267 323 OFFCURVE",
"268 323 OFFCURVE",
"270 323 CURVE",
"271 322 LINE",
"275 322 OFFCURVE",
"277 320 OFFCURVE",
"277 316 CURVE SMOOTH",
"277 315 OFFCURVE",
"276 311 OFFCURVE",
"274 305 CURVE",
"271 299 OFFCURVE",
"270 295 OFFCURVE",
"270 292 CURVE SMOOTH",
"270 285 OFFCURVE",
"276 281 OFFCURVE",
"287 281 CURVE",
"289 282 OFFCURVE",
"299 296 OFFCURVE",
"318 325 CURVE SMOOTH",
"367 398 OFFCURVE",
"423 431 OFFCURVE",
"475 454 CURVE",
"476 461 OFFCURVE",
"479 474 OFFCURVE",
"484 491 CURVE SMOOTH",
"494 524 OFFCURVE",
"507 551 OFFCURVE",
"524 572 CURVE SMOOTH",
"531 581 OFFCURVE",
"538 586 OFFCURVE",
"544 586 CURVE SMOOTH",
"548 586 OFFCURVE",
"556 583 OFFCURVE",
"556 570 CURVE SMOOTH",
"556 563 OFFCURVE",
"552 549 OFFCURVE",
"544 528 CURVE SMOOTH",
"531 495 OFFCURVE",
"525 471 OFFCURVE",
"525 456 CURVE SMOOTH",
"525 451 OFFCURVE",
"526 446 OFFCURVE",
"527 440 CURVE",
"527 381 OFFCURVE",
"502 319 OFFCURVE",
"452 254 CURVE SMOOTH",
"419 211 OFFCURVE",
"401 175 OFFCURVE",
"397 146 CURVE",
"809 146 LINE",
"812 175 OFFCURVE",
"814 204 OFFCURVE",
"814 231 CURVE SMOOTH",
"814 365 OFFCURVE",
"781 478 OFFCURVE",
"715 571 CURVE SMOOTH",
"680 620 OFFCURVE",
"614 688 OFFCURVE",
"574 688 CURVE",
"573 687 OFFCURVE",
"573 687 OFFCURVE",
"572 687 CURVE SMOOTH",
"569 687 LINE",
"552 689 OFFCURVE",
"543 690 OFFCURVE",
"541 690 CURVE SMOOTH",
"535 690 OFFCURVE",
"530 689 OFFCURVE",
"525 688 CURVE",
"524 688 OFFCURVE",
"522 688 OFFCURVE",
"519 687 CURVE",
"516 687 OFFCURVE",
"513 687 OFFCURVE",
"512 687 CURVE SMOOTH",
"511 687 OFFCURVE",
"509 687 OFFCURVE",
"506 687 CURVE",
"503 688 OFFCURVE",
"500 688 OFFCURVE",
"499 688 CURVE",
"493 690 OFFCURVE",
"488 699 OFFCURVE",
"484 714 CURVE",
"482 725 OFFCURVE",
"478 742 OFFCURVE",
"473 763 CURVE",
"471 770 OFFCURVE",
"467 777 OFFCURVE",
"461 783 CURVE",
"450 752 OFFCURVE",
"419 728 OFFCURVE",
"368 713 CURVE SMOOTH",
"340 704 OFFCURVE",
"321 696 OFFCURVE",
"311 687 CURVE",
"302 658 OFFCURVE",
"275 599 OFFCURVE",
"229 510 CURVE SMOOTH",
"222 496 OFFCURVE",
"206 462 OFFCURVE",
"181 409 CURVE SMOOTH",
"169 384 OFFCURVE",
"162 366 OFFCURVE",
"160 353 CURVE"
);
}
);
width = 1000;
}
);
unicode = 006F;
},
{
glyphname = p;
layers = (
{
layerId = "2A91B3D2-AC67-40A1-AF7C-F75DCB303A46";
name = Regular;
paths = (
{
closed = 1;
nodes = (
"725 151 LINE",
"725 292 OFFCURVE",
"674 345 OFFCURVE",
"595 390 CURVE SMOOTH",
"562 409 OFFCURVE",
"546 427 OFFCURVE",
"546 443 CURVE SMOOTH",
"546 455 OFFCURVE",
"552 459 OFFCURVE",
"571 470 CURVE SMOOTH",
"607 491 OFFCURVE",
"620 508 OFFCURVE",
"620 548 CURVE SMOOTH",
"620 585 OFFCURVE",
"600 615 OFFCURVE",
"561 638 CURVE SMOOTH",
"540 651 OFFCURVE",
"532 656 OFFCURVE",
"532 668 CURVE SMOOTH",
"532 683 OFFCURVE",
"536 696 OFFCURVE",
"545 707 CURVE",
"556 723 OFFCURVE",
"557 726 OFFCURVE",
"557 743 CURVE SMOOTH",
"557 771 OFFCURVE",
"529 794 OFFCURVE",
"500 794 CURVE SMOOTH",
"472 794 OFFCURVE",
"445 771 OFFCURVE",
"445 743 CURVE SMOOTH",
"445 730 OFFCURVE",
"449 719 OFFCURVE",
"458 708 CURVE",
"466 697 OFFCURVE",
"470 683 OFFCURVE",
"470 668 CURVE SMOOTH",
"470 656 OFFCURVE",
"461 649 OFFCURVE",
"441 638 CURVE SMOOTH",
"402 615 OFFCURVE",
"383 585 OFFCURVE",
"383 548 CURVE SMOOTH",
"383 515 OFFCURVE",
"399 489 OFFCURVE",
"432 470 CURVE SMOOTH",
"445 462 OFFCURVE",
"456 452 OFFCURVE",
"456 443 CURVE SMOOTH",
"456 427 OFFCURVE",
"440 409 OFFCURVE",
"407 390 CURVE SMOOTH",
"327 342 OFFCURVE",
"278 291 OFFCURVE",
"278 151 CURVE"
);
}
);
width = 1000;
}
);
unicode = 0070;
},
{
glyphname = q;
layers = (
{
layerId = "2A91B3D2-AC67-40A1-AF7C-F75DCB303A46";
name = Regular;
paths = (
{
closed = 1;
nodes = (
"535 390 OFFCURVE",
"524 383 OFFCURVE",
"503 383 CURVE SMOOTH",
"480 383 OFFCURVE",
"468 390 OFFCURVE",
"468 405 CURVE SMOOTH",
"468 546 OFFCURVE",
"360 629 OFFCURVE",
"281 629 CURVE SMOOTH",
"213 629 OFFCURVE",
"170 592 OFFCURVE",
"170 525 CURVE SMOOTH",
"170 478 OFFCURVE",
"238 384 OFFCURVE",
"277 352 CURVE SMOOTH",
"290 341 OFFCURVE",
"312 336 OFFCURVE",
"343 336 CURVE SMOOTH",
"376 336 OFFCURVE",
"428 342 OFFCURVE",
"501 354 CURVE",
"574 342 OFFCURVE",
"627 336 OFFCURVE",
"660 336 CURVE SMOOTH",
"724 336 OFFCURVE",
"749 366 OFFCURVE",
"793 431 CURVE SMOOTH",
"820 470 OFFCURVE",
"833 502 OFFCURVE",
"833 525 CURVE SMOOTH",
"833 592 OFFCURVE",
"790 629 OFFCURVE",
"722 629 CURVE SMOOTH",
"646 629 OFFCURVE",
"535 546 OFFCURVE",
"535 405 CURVE SMOOTH"
);
},
{
closed = 1;
nodes = (
"806 475 OFFCURVE",
"732 393 OFFCURVE",
"692 373 CURVE",
"675 370 OFFCURVE",
"659 369 OFFCURVE",
"642 369 CURVE SMOOTH",
"590 369 OFFCURVE",
"564 379 OFFCURVE",
"565 400 CURVE",
"566 528 OFFCURVE",
"651 598 OFFCURVE",
"720 598 CURVE SMOOTH",
"768 598 OFFCURVE",
"806 573 OFFCURVE",
"806 526 CURVE SMOOTH"
);
},
{
closed = 1;
nodes = (
"687 233 OFFCURVE",
"572 241 OFFCURVE",
"503 241 CURVE SMOOTH",
"470 241 OFFCURVE",
"440 240 OFFCURVE",
"415 237 CURVE SMOOTH",
"385 234 LINE SMOOTH",
"340 228 OFFCURVE",
"317 220 OFFCURVE",
"317 209 CURVE SMOOTH",
"317 197 OFFCURVE",
"328 191 OFFCURVE",
"351 191 CURVE SMOOTH",
"360 191 OFFCURVE",
"379 192 OFFCURVE",
"406 195 CURVE SMOOTH",
"455 200 OFFCURVE",
"487 203 OFFCURVE",
"502 203 CURVE SMOOTH",
"519 203 OFFCURVE",
"544 201 OFFCURVE",
"577 197 CURVE SMOOTH",
"610 193 OFFCURVE",
"635 191 OFFCURVE",
"652 191 CURVE SMOOTH",
"675 191 OFFCURVE",
"687 197 OFFCURVE",
"687 208 CURVE SMOOTH"
);
},
{
closed = 1;
nodes = (
"198 571 OFFCURVE",
"237 598 OFFCURVE",
"282 598 CURVE SMOOTH",
"353 598 OFFCURVE",
"435 528 OFFCURVE",
"438 400 CURVE",
"439 389 OFFCURVE",
"432 382 OFFCURVE",
"418 377 CURVE SMOOTH",
"403 372 OFFCURVE",
"385 369 OFFCURVE",
"362 369 CURVE SMOOTH",
"345 369 OFFCURVE",
"328 370 OFFCURVE",
"311 373 CURVE",
"267 394 OFFCURVE",
"198 477 OFFCURVE",
"198 526 CURVE SMOOTH"
);
}
);
width = 1000;
}
);
unicode = 0071;
},
{
glyphname = r;
layers = (
{
layerId = "2A91B3D2-AC67-40A1-AF7C-F75DCB303A46";
name = Regular;
paths = (
{
closed = 1;
nodes = (
"293 211 OFFCURVE",
"302 205 OFFCURVE",
"321 205 CURVE SMOOTH",
"332 205 OFFCURVE",
"347 206 OFFCURVE",
"367 208 CURVE SMOOTH",
"386 210 OFFCURVE",
"400 211 OFFCURVE",
"408 211 CURVE",
"483 214 LINE",
"490 215 OFFCURVE",
"497 215 OFFCURVE",
"502 215 CURVE SMOOTH",
"521 215 OFFCURVE",
"545 214 OFFCURVE",
"575 211 CURVE",
"611 209 OFFCURVE",
"635 208 OFFCURVE",
"648 207 CURVE",
"651 207 OFFCURVE",
"656 207 OFFCURVE",
"663 206 CURVE SMOOTH",
"670 205 OFFCURVE",
"675 205 OFFCURVE",
"678 205 CURVE SMOOTH",
"697 205 OFFCURVE",
"706 212 OFFCURVE",
"706 225 CURVE SMOOTH",
"706 252 OFFCURVE",
"626 262 OFFCURVE",
"539 265 CURVE SMOOTH",
"526 265 OFFCURVE",
"513 265 OFFCURVE",
"500 265 CURVE SMOOTH",
"409 265 OFFCURVE",
"346 258 OFFCURVE",
"311 243 CURVE SMOOTH",
"299 238 OFFCURVE",
"293 231 OFFCURVE",
"293 224 CURVE SMOOTH"
);
},
{
closed = 1;
nodes = (
"119 747 OFFCURVE",
"105 733 OFFCURVE",
"105 716 CURVE SMOOTH",
"105 699 OFFCURVE",
"119 684 OFFCURVE",
"136 684 CURVE SMOOTH",
"156 684 OFFCURVE",
"166 695 OFFCURVE",
"166 716 CURVE SMOOTH",
"166 737 OFFCURVE",
"156 747 OFFCURVE",
"136 747 CURVE SMOOTH"
);
},
{
closed = 1;
nodes = (
"279 826 OFFCURVE",
"268 816 OFFCURVE",
"268 795 CURVE SMOOTH",
"268 774 OFFCURVE",
"279 763 OFFCURVE",
"300 763 CURVE SMOOTH",
"320 763 OFFCURVE",
"330 774 OFFCURVE",
"330 795 CURVE SMOOTH",
"330 816 OFFCURVE",
"320 826 OFFCURVE",
"300 826 CURVE SMOOTH"
);
},
{
closed = 1;
nodes = (
"683 826 OFFCURVE",
"669 811 OFFCURVE",
"669 795 CURVE SMOOTH",
"669 774 OFFCURVE",
"679 763 OFFCURVE",
"699 763 CURVE SMOOTH",
"720 763 OFFCURVE",
"730 774 OFFCURVE",
"730 795 CURVE SMOOTH",
"730 816 OFFCURVE",
"720 826 OFFCURVE",
"699 826 CURVE SMOOTH"
);
},
{
closed = 1;
nodes = (
"842 747 OFFCURVE",
"832 737 OFFCURVE",
"832 716 CURVE SMOOTH",
"832 695 OFFCURVE",
"842 684 OFFCURVE",
"862 684 CURVE SMOOTH",
"883 684 OFFCURVE",
"893 695 OFFCURVE",
"893 716 CURVE SMOOTH",
"893 733 OFFCURVE",
"879 747 OFFCURVE",
"862 747 CURVE SMOOTH"
);
},
{
closed = 1;
nodes = (
"483 864 OFFCURVE",
"469 850 OFFCURVE",
"469 833 CURVE SMOOTH",
"469 817 OFFCURVE",
"483 802 OFFCURVE",
"500 802 CURVE SMOOTH",
"520 802 OFFCURVE",
"530 812 OFFCURVE",
"530 833 CURVE SMOOTH",
"530 850 OFFCURVE",
"516 864 OFFCURVE",
"500 864 CURVE SMOOTH"
);
},
{
closed = 1;
nodes = (
"725 392 OFFCURVE",
"702 402 OFFCURVE",
"656 409 CURVE SMOOTH",
"617 414 OFFCURVE",
"565 417 OFFCURVE",
"500 417 CURVE SMOOTH",
"435 417 OFFCURVE",
"383 414 OFFCURVE",
"343 408 CURVE SMOOTH",
"297 401 OFFCURVE",
"274 390 OFFCURVE",
"274 376 CURVE SMOOTH",
"274 364 OFFCURVE",
"285 358 OFFCURVE",
"306 358 CURVE SMOOTH",
"317 358 OFFCURVE",
"333 359 OFFCURVE",
"353 360 CURVE",
"376 362 OFFCURVE",
"391 363 OFFCURVE",
"400 364 CURVE",
"481 367 LINE",
"489 367 OFFCURVE",
"496 367 OFFCURVE",
"502 367 CURVE SMOOTH",
"531 367 OFFCURVE",
"575 365 OFFCURVE",
"634 361 CURVE",
"645 361 OFFCURVE",
"661 360 OFFCURVE",
"682 359 CURVE",
"688 358 OFFCURVE",
"692 358 OFFCURVE",
"695 358 CURVE SMOOTH",
"715 358 OFFCURVE",
"725 364 OFFCURVE",
"725 377 CURVE SMOOTH"
);
}
);
width = 1000;
}
);
unicode = 0072;
},
{
glyphname = s;
layers = (
{
layerId = "2A91B3D2-AC67-40A1-AF7C-F75DCB303A46";
name = Regular;
paths = (
{
closed = 1;
nodes = (
"366 369 LINE",
"366 327 LINE",
"649 327 LINE",
"649 369 LINE"
);
},
{
closed = 1;
nodes = (
"366 594 LINE",
"366 552 LINE",
"649 552 LINE",
"649 594 LINE"
);
}
);
width = 1000;
}
);
unicode = 0073;
},
{
glyphname = t;
layers = (
{
layerId = "2A91B3D2-AC67-40A1-AF7C-F75DCB303A46";
name = Regular;
paths = (
{
closed = 1;
nodes = (
"439 385 LINE SMOOTH",
"396 385 OFFCURVE",
"375 378 OFFCURVE",
"375 365 CURVE SMOOTH",
"375 341 OFFCURVE",
"405 344 OFFCURVE",
"500 344 CURVE SMOOTH",
"583 344 OFFCURVE",
"625 351 OFFCURVE",
"625 365 CURVE SMOOTH",
"625 378 OFFCURVE",
"604 385 OFFCURVE",
"561 385 CURVE SMOOTH"
);
},
{
closed = 1;
nodes = (
"439 463 LINE SMOOTH",
"418 463 OFFCURVE",
"402 462 OFFCURVE",
"391 460 CURVE",
"380 457 OFFCURVE",
"375 452 OFFCURVE",
"375 443 CURVE SMOOTH",
"375 433 OFFCURVE",
"384 427 OFFCURVE",
"401 426 CURVE SMOOTH",
"423 424 OFFCURVE",
"456 423 OFFCURVE",
"500 423 CURVE SMOOTH",
"544 423 OFFCURVE",
"577 424 OFFCURVE",
"600 426 CURVE SMOOTH",
"617 427 OFFCURVE",
"625 433 OFFCURVE",
"625 443 CURVE SMOOTH",
"625 456 OFFCURVE",
"604 463 OFFCURVE",
"561 463 CURVE SMOOTH"
);
},
{
closed = 1;
nodes = (
"523 525 LINE",
"523 583 LINE",
"566 583 LINE",
"566 630 LINE",
"523 630 LINE",
"523 684 LINE",
"477 684 LINE",
"477 630 LINE",
"434 630 LINE",
"434 583 LINE",
"477 583 LINE",
"477 525 LINE"
);
},
{
closed = 1;
nodes = (
"483 878 OFFCURVE",
"467 864 OFFCURVE",
"467 848 CURVE SMOOTH",
"467 831 OFFCURVE",
"483 817 OFFCURVE",
"500 817 CURVE SMOOTH",
"521 817 OFFCURVE",
"531 827 OFFCURVE",
"531 848 CURVE SMOOTH",
"531 868 OFFCURVE",
"521 878 OFFCURVE",
"500 878 CURVE SMOOTH"
);
}
);
width = 1000;
}
);
unicode = 0074;
},
{
glyphname = u;
layers = (
{
layerId = "2A91B3D2-AC67-40A1-AF7C-F75DCB303A46";
name = Regular;
paths = (
{
closed = 1;
nodes = (
"178 382 OFFCURVE",
"159 366 OFFCURVE",
"159 343 CURVE SMOOTH",
"159 339 OFFCURVE",
"160 335 OFFCURVE",
"163 330 CURVE",
"184 330 OFFCURVE",
"204 346 OFFCURVE",
"204 367 CURVE SMOOTH",
"204 370 OFFCURVE",
"203 375 OFFCURVE",
"201 382 CURVE"
);
},
{
closed = 1;
nodes = (
"815 220 OFFCURVE",
"815 235 OFFCURVE",
"815 235 CURVE",
"815 371 OFFCURVE",
"780 482 OFFCURVE",
"711 569 CURVE SMOOTH",
"652 644 OFFCURVE",
"597 682 OFFCURVE",
"548 682 CURVE SMOOTH",
"545 682 OFFCURVE",
"541 681 OFFCURVE",
"536 680 CURVE",
"535 680 OFFCURVE",
"535 680 OFFCURVE",
"534 681 CURVE",
"533 681 OFFCURVE",
"532 681 OFFCURVE",
"531 681 CURVE SMOOTH",
"529 681 LINE SMOOTH",
"518 681 OFFCURVE",
"512 677 OFFCURVE",
"512 668 CURVE SMOOTH",
"512 664 OFFCURVE",
"515 660 OFFCURVE",
"520 655 CURVE",
"565 652 OFFCURVE",
"614 620 OFFCURVE",
"667 559 CURVE SMOOTH",
"735 480 OFFCURVE",
"769 366 OFFCURVE",
"769 219 CURVE SMOOTH",
"769 218 OFFCURVE",
"769 215 OFFCURVE",
"768 211 CURVE",
"768 207 OFFCURVE",
"768 204 OFFCURVE",
"768 202 CURVE SMOOTH",
"768 192 LINE SMOOTH",
"768 187 OFFCURVE",
"768 185 OFFCURVE",
"768 185 CURVE",
"769 168 OFFCURVE",
"780 156 OFFCURVE",
"793 156 CURVE SMOOTH",
"804 156 OFFCURVE",
"813 168 OFFCURVE",
"814 189 CURVE SMOOTH"
);
},
{
closed = 1;
nodes = (
"292 548 LINE",
"294 548 LINE SMOOTH",
"295 548 OFFCURVE",
"296 548 OFFCURVE",
"297 547 CURVE",
"298 547 LINE SMOOTH",
"331 547 OFFCURVE",
"382 591 OFFCURVE",
"382 615 CURVE SMOOTH",
"382 618 OFFCURVE",
"381 622 OFFCURVE",
"378 625 CURVE",
"370 630 OFFCURVE",
"362 632 OFFCURVE",
"353 632 CURVE SMOOTH",
"321 632 OFFCURVE",
"281 601 OFFCURVE",
"281 569 CURVE SMOOTH",
"281 560 OFFCURVE",
"284 553 OFFCURVE",
"291 548 CURVE"
);
}
);
width = 1000;
}
);
unicode = 0075;
},
{
glyphname = quotedblleft;
layers = (
{
layerId = "2A91B3D2-AC67-40A1-AF7C-F75DCB303A46";
name = Regular;
paths = (
{
closed = 1;
nodes = (
"0 183 LINE",
"1000 183 LINE",
"1000 99 LINE",
"0 99 LINE"
);
},
{
closed = 1;
nodes = (
"0 33 LINE",
"1000 33 LINE",
"1000 0 LINE",
"0 0 LINE"
);
}
);
width = 1000;
}
);
unicode = 201C;
},
{
glyphname = quotedblright;
layers = (
{
layerId = "2A91B3D2-AC67-40A1-AF7C-F75DCB303A46";
name = Regular;
paths = (
{
closed = 1;
nodes = (
"0 183 LINE",
"1000 183 LINE",
"1000 99 LINE",
"0 99 LINE"
);
},
{
closed = 1;
nodes = (
"0 33 LINE",
"1000 33 LINE",
"1000 0 LINE",
"0 0 LINE"
);
}
